<?xml version="1.0" encoding="UTF-8"?>
<svg id="Camada_2" data-name="Camada 2" xmlns="http://www.w3.org/2000/svg" viewBox="0 0 14.22 10">
  <defs>
    <style>
      .cls-1 {
        fill: #e4e4e4;
      }
    </style>
  </defs>
  <g id="Cabeçalho">
    <path class="cls-1" d="m12.97,0H1.25C.56,0,0,.56,0,1.25v7.5c0,.69.56,1.25,1.25,1.25h11.72c.69,0,1.25-.56,1.25-1.25V1.25c0-.69-.56-1.25-1.25-1.25Zm-.19.83c-.4.41-5.15,5.17-5.35,5.36-.16.16-.48.16-.65,0L1.44.83h11.34ZM.83,8.6V1.4l3.59,3.6-3.59,3.6Zm.61.57l3.56-3.58,1.19,1.2c.49.49,1.34.49,1.83,0l1.19-1.2,3.56,3.58H1.44Zm11.95-.57l-3.59-3.6,3.59-3.6v7.19Z"/>
  </g>
</svg>