<?xml version="1.0" encoding="UTF-8"?>
<svg id="Camada_2" data-name="Camada 2" xmlns="http://www.w3.org/2000/svg" viewBox="0 0 384.21 179.59">
  <defs>
    <style>
      .cls-1 {
        letter-spacing: 0em;
      }

      .cls-2 {
        letter-spacing: -.01em;
      }

      .cls-3 {
        letter-spacing: -.03em;
      }

      .cls-4 {
        fill: #b9c6d7;
        font-family: TitilliumWeb-Regular, 'Titillium Web';
        font-size: 16px;
      }

      .cls-5 {
        letter-spacing: 0em;
      }

      .cls-6 {
        letter-spacing: 0em;
      }

      .cls-7 {
        letter-spacing: -.02em;
      }

      .cls-8 {
        letter-spacing: 0em;
      }

      .cls-9 {
        letter-spacing: 0em;
      }

      .cls-10 {
        letter-spacing: -.01em;
      }

      .cls-11 {
        fill: #f2f2f2;
      }
    </style>
  </defs>
  <g id="Layer_9" data-name="Layer 9">
    <g id="Layer_10" data-name="Layer 10">
      <g>
        <g>
          <polygon class="cls-11" points="126.19 0 129.88 0 124.54 21.7 117.61 21.7 112.27 0 115.96 0 120.28 18.6 121.87 18.6 126.19 0"/>
          <rect class="cls-11" x="134.61" y="0" width="3.53" height="21.7"/>
          <path class="cls-11" d="m150.97,2.95l-2.7,10.99h6.96l-2.67-10.99h-1.59Zm-8.1,18.75l5.37-21.7h7.02l5.4,21.7h-3.56l-1.18-4.66h-8.36l-1.18,4.66h-3.53Z"/>
          <polygon class="cls-11" points="164.31 21.7 164.31 0 170.47 0 177.08 18.6 177.56 18.6 177.56 0 181.08 0 181.08 21.7 175.05 21.7 168.28 3.07 167.83 3.07 167.83 21.7 164.31 21.7"/>
          <path class="cls-11" d="m192.86,2.95l-2.7,10.99h6.96l-2.67-10.99h-1.59Zm-8.1,18.75l5.37-21.7h7.02l5.4,21.7h-3.56l-1.18-4.66h-8.36l-1.18,4.66h-3.53Z"/>
          <path class="cls-11" d="m65.96,38.31h4.42c2.54,0,3.81-1.54,3.81-4.62,0-1.48-.31-2.56-.92-3.23-.61-.68-1.58-1.02-2.89-1.02h-4.42v8.87Zm4.45,3.04h-4.45v6.75h-3.53v-21.7h7.98c4.93,0,7.4,2.43,7.4,7.29,0,2.49-.62,4.39-1.86,5.7-1.24,1.31-3.09,1.96-5.54,1.96"/>
          <polygon class="cls-11" points="81.74 48.1 81.74 26.4 95.47 26.4 95.47 29.47 85.27 29.47 85.27 35.62 93.56 35.62 93.56 38.66 85.27 38.66 85.27 45 95.47 45 95.47 48.1 81.74 48.1"/>
          <rect class="cls-11" x="100.9" y="26.4" width="3.53" height="21.7"/>
          <polygon class="cls-11" points="112.91 26.4 117.58 34.95 122.32 26.4 126.04 26.4 119.59 37.43 126.04 48.1 122.09 48.1 117.42 39.93 112.66 48.1 108.94 48.1 115.42 37.62 108.94 26.4 112.91 26.4"/>
          <path class="cls-11" d="m132.7,43.51c.72,1.25,2.1,1.87,4.13,1.87s3.41-.61,4.11-1.84c.71-1.23,1.07-3.28,1.07-6.16s-.37-4.98-1.1-6.29c-.73-1.31-2.09-1.96-4.08-1.96s-3.36.65-4.1,1.96c-.74,1.31-1.11,3.39-1.11,6.26s.36,4.92,1.08,6.16m11.01,2.28c-1.3,1.77-3.6,2.66-6.88,2.66s-5.58-.89-6.89-2.68c-1.31-1.79-1.97-4.59-1.97-8.41s.66-6.66,1.98-8.52c1.33-1.86,3.62-2.79,6.88-2.79s5.55.93,6.86,2.77c1.31,1.85,1.97,4.69,1.97,8.54s-.65,6.65-1.95,8.43"/>
          <polygon class="cls-11" points="146.72 29.54 146.72 26.4 162.61 26.4 162.61 29.54 156.47 29.54 156.47 48.1 152.92 48.1 152.92 29.54 146.72 29.54"/>
          <path class="cls-11" d="m168.4,43.51c.72,1.25,2.1,1.87,4.13,1.87s3.41-.61,4.11-1.84c.71-1.23,1.07-3.28,1.07-6.16s-.37-4.98-1.1-6.29c-.73-1.31-2.09-1.96-4.08-1.96s-3.36.65-4.1,1.96c-.74,1.31-1.11,3.39-1.11,6.26s.36,4.92,1.08,6.16m11.01,2.28c-1.3,1.77-3.6,2.66-6.88,2.66s-5.58-.89-6.89-2.68c-1.31-1.79-1.97-4.59-1.97-8.41s.66-6.66,1.99-8.52c1.32-1.86,3.62-2.79,6.88-2.79s5.55.93,6.86,2.77c1.31,1.85,1.97,4.69,1.97,8.54s-.65,6.65-1.95,8.43"/>
          <path class="cls-11" d="m7.74,55.28l-3.28,11.79h8.18l-3.28-11.79h-1.62ZM0,74.76l5.93-21.53h5.24l5.93,21.53h-2.37l-1.56-5.54H3.93l-1.56,5.54H0Z"/>
          <path class="cls-11" d="m35.29,63.68c0-4.13-.93-6.7-2.78-7.72-.75-.41-1.67-.62-2.75-.62h-5.31v17.3h5.31c3.68,0,5.52-2.99,5.52-8.96m-5.52,11.08h-7.71v-21.53h7.71c3.51,0,5.84,1.39,6.99,4.17.66,1.6,1,3.69,1,6.28,0,5.41-1.35,8.83-4.05,10.23-1.08.56-2.39.84-3.93.84"/>
          <polygon class="cls-11" points="55.64 53.23 58.13 53.23 52.48 74.76 47.12 74.76 41.47 53.23 43.97 53.23 48.93 72.64 50.67 72.64 55.64 53.23"/>
          <path class="cls-11" d="m64.31,64.09c0,3.15.42,5.42,1.25,6.8.83,1.38,2.44,2.07,4.82,2.07s3.98-.67,4.81-2.02c.82-1.35,1.23-3.61,1.23-6.78s-.43-5.49-1.28-6.94c-.85-1.45-2.45-2.18-4.79-2.18s-3.93.72-4.77,2.16c-.84,1.44-1.26,3.74-1.26,6.89m14.6.06c0,3.84-.61,6.62-1.84,8.34-1.23,1.72-3.46,2.58-6.69,2.58s-5.47-.88-6.69-2.65c-1.23-1.76-1.84-4.54-1.84-8.32s.62-6.6,1.87-8.43c1.25-1.83,3.46-2.75,6.65-2.75s5.4.91,6.66,2.74c1.26,1.82,1.89,4.66,1.89,8.49"/>
          <path class="cls-11" d="m93.42,65.89v-2.15h5.96v10.58c-2.62.5-4.96.75-7.02.75-3.14,0-5.32-.9-6.54-2.71-1.22-1.8-1.83-4.59-1.83-8.35s.61-6.55,1.83-8.37c1.22-1.81,3.37-2.72,6.47-2.72,1.94,0,3.94.21,6.02.62l1.06.19-.09,1.99c-2.58-.44-4.81-.65-6.71-.65-2.39,0-4.01.69-4.84,2.07-.83,1.38-1.25,3.67-1.25,6.88s.42,5.5,1.25,6.88c.83,1.38,2.43,2.07,4.81,2.07,1.46,0,2.94-.14,4.46-.44v-6.63h-3.59Z"/>
          <path class="cls-11" d="m111.49,55.28l-3.28,11.79h8.18l-3.28-11.79h-1.62Zm-7.74,19.48l5.93-21.53h5.24l5.93,21.53h-2.37l-1.56-5.54h-9.24l-1.56,5.54h-2.37Z"/>
          <path class="cls-11" d="m139.04,63.68c0-4.13-.93-6.7-2.78-7.72-.75-.41-1.67-.62-2.75-.62h-5.31v17.3h5.31c3.68,0,5.52-2.99,5.52-8.96m-5.52,11.08h-7.71v-21.53h7.71c3.51,0,5.84,1.39,6.99,4.17.66,1.6,1,3.69,1,6.28,0,5.41-1.35,8.83-4.05,10.23-1.08.56-2.39.84-3.93.84"/>
          <path class="cls-11" d="m149.09,64.09c0,3.15.42,5.42,1.25,6.8.83,1.38,2.44,2.07,4.82,2.07s3.98-.67,4.81-2.02c.82-1.35,1.23-3.61,1.23-6.78s-.43-5.49-1.28-6.94c-.85-1.45-2.45-2.18-4.79-2.18s-3.93.72-4.77,2.16c-.84,1.44-1.26,3.74-1.26,6.89m14.6.06c0,3.84-.61,6.62-1.84,8.34-1.23,1.72-3.46,2.58-6.69,2.58s-5.47-.88-6.69-2.65c-1.23-1.76-1.84-4.54-1.84-8.32s.62-6.6,1.87-8.43c1.25-1.83,3.46-2.75,6.65-2.75s5.4.91,6.66,2.74c1.26,1.82,1.89,4.66,1.89,8.49"/>
          <path class="cls-11" d="m175.61,55c-3.12,0-4.68,1.17-4.68,3.51,0,1.31.36,2.21,1.08,2.69.72.49,2.17.98,4.37,1.46,2.19.49,3.75,1.12,4.67,1.9.91.78,1.37,2.06,1.37,3.84,0,4.42-2.3,6.63-6.89,6.63-1.52,0-3.42-.18-5.71-.53l-1.12-.16.25-1.99c2.83.37,4.98.56,6.46.56,3.08,0,4.62-1.44,4.62-4.32,0-1.16-.34-2-1.01-2.5-.68-.51-1.94-.94-3.79-1.29-2.43-.52-4.16-1.19-5.18-2.01-1.02-.82-1.53-2.19-1.53-4.12,0-3.86,2.32-5.79,6.96-5.79,1.52,0,3.34.15,5.46.47l1.06.16-.22,2.02c-2.89-.35-4.94-.53-6.15-.53"/>
          <path class="cls-11" d="m49,81.68l-3.28,11.79h8.18l-3.28-11.79h-1.62Zm-7.74,19.48l5.93-21.53h5.24l5.93,21.53h-2.37l-1.56-5.54h-9.24l-1.56,5.54h-2.37Z"/>
          <path class="cls-11" d="m69.07,81.4c-3.12,0-4.68,1.17-4.68,3.51,0,1.31.36,2.21,1.08,2.69.72.49,2.17.98,4.37,1.46,2.19.49,3.75,1.12,4.67,1.9.91.78,1.37,2.06,1.37,3.84,0,4.42-2.3,6.63-6.89,6.63-1.52,0-3.42-.18-5.71-.53l-1.12-.16.25-1.99c2.83.37,4.98.56,6.46.56,3.08,0,4.62-1.44,4.62-4.32,0-1.16-.34-2-1.01-2.5-.68-.51-1.94-.94-3.79-1.29-2.43-.52-4.16-1.19-5.18-2.01-1.02-.82-1.53-2.19-1.53-4.12,0-3.86,2.32-5.79,6.96-5.79,1.52,0,3.34.15,5.46.47l1.06.16-.22,2.02c-2.89-.35-4.94-.53-6.15-.53"/>
          <path class="cls-11" d="m87.54,81.4c-3.12,0-4.68,1.17-4.68,3.51,0,1.31.36,2.21,1.08,2.69.72.49,2.17.98,4.37,1.46,2.19.49,3.75,1.12,4.67,1.9.91.78,1.37,2.06,1.37,3.84,0,4.42-2.3,6.63-6.9,6.63-1.52,0-3.42-.18-5.71-.53l-1.12-.16.25-1.99c2.83.37,4.98.56,6.46.56,3.08,0,4.62-1.44,4.62-4.32,0-1.16-.34-2-1.01-2.5-.68-.51-1.94-.94-3.79-1.29-2.43-.52-4.16-1.19-5.18-2.01-1.02-.82-1.53-2.19-1.53-4.12,0-3.86,2.32-5.79,6.96-5.79,1.52,0,3.34.15,5.46.47l1.06.16-.22,2.02c-2.89-.35-4.94-.53-6.15-.53"/>
          <path class="cls-11" d="m101.64,90.49c0,3.15.42,5.42,1.25,6.8.83,1.38,2.44,2.07,4.82,2.07s3.98-.67,4.81-2.02c.82-1.35,1.23-3.61,1.23-6.78s-.43-5.49-1.28-6.94c-.85-1.45-2.45-2.18-4.79-2.18s-3.93.72-4.77,2.16c-.84,1.44-1.26,3.74-1.26,6.89m14.6.06c0,3.84-.61,6.62-1.84,8.34-1.23,1.72-3.46,2.58-6.69,2.58s-5.47-.88-6.7-2.65c-1.23-1.76-1.84-4.54-1.84-8.32s.62-6.6,1.87-8.43c1.25-1.83,3.46-2.75,6.65-2.75s5.4.91,6.66,2.74c1.26,1.83,1.89,4.66,1.89,8.49"/>
          <path class="cls-11" d="m135.25,100.82c-2.14.44-4.07.65-5.77.65s-3.08-.23-4.13-.7c-1.05-.47-1.86-1.19-2.43-2.18-.57-.99-.97-2.12-1.18-3.39-.22-1.27-.33-2.87-.33-4.78s.11-3.51.33-4.81c.22-1.3.61-2.44,1.18-3.44.57-1,1.38-1.72,2.42-2.18,1.04-.46,2.39-.68,4.06-.68s3.62.23,5.86.68l-.09,2.02c-2.1-.37-3.97-.56-5.62-.56-2.29,0-3.8.68-4.54,2.04-.74,1.36-1.11,3.68-1.11,6.95,0,1.64.07,2.96.2,3.95.14,1,.4,1.89.8,2.69.39.8.97,1.37,1.73,1.71.76.34,1.87.51,3.34.51s3.2-.19,5.19-.56l.09,2.05Z"/>
          <rect class="cls-11" x="140.74" y="79.63" width="2.4" height="21.53"/>
          <path class="cls-11" d="m155.81,81.68l-3.28,11.79h8.18l-3.28-11.79h-1.62Zm-7.74,19.48l5.93-21.53h5.24l5.93,21.53h-2.37l-1.56-5.54h-9.24l-1.56,5.54h-2.37Z"/>
          <path class="cls-11" d="m183.36,90.08c0-4.13-.93-6.7-2.78-7.72-.75-.41-1.67-.62-2.75-.62h-5.31v17.3h5.31c3.68,0,5.52-2.99,5.52-8.96m-5.52,11.08h-7.71v-21.53h7.71c3.51,0,5.84,1.39,6.99,4.17.66,1.6,1,3.69,1,6.28,0,5.41-1.35,8.83-4.05,10.23-1.08.56-2.39.84-3.93.84"/>
          <path class="cls-11" d="m193.41,90.49c0,3.15.42,5.42,1.25,6.8.83,1.38,2.44,2.07,4.82,2.07s3.98-.67,4.81-2.02c.82-1.35,1.23-3.61,1.23-6.78s-.43-5.49-1.28-6.94c-.85-1.45-2.45-2.18-4.79-2.18s-3.93.72-4.77,2.16c-.84,1.44-1.26,3.74-1.26,6.89m14.6.06c0,3.84-.61,6.62-1.84,8.34-1.23,1.72-3.46,2.58-6.69,2.58s-5.47-.88-6.69-2.65c-1.23-1.76-1.84-4.54-1.84-8.32s.62-6.6,1.87-8.43c1.25-1.83,3.46-2.75,6.65-2.75s5.4.91,6.66,2.74c1.26,1.83,1.89,4.66,1.89,8.49"/>
          <path class="cls-11" d="m219.93,81.4c-3.12,0-4.68,1.17-4.68,3.51,0,1.31.36,2.21,1.08,2.69.72.49,2.17.98,4.37,1.46,2.19.49,3.75,1.12,4.67,1.9.91.78,1.37,2.06,1.37,3.84,0,4.42-2.3,6.63-6.89,6.63-1.52,0-3.42-.18-5.71-.53l-1.12-.16.25-1.99c2.83.37,4.98.56,6.46.56,3.08,0,4.62-1.44,4.62-4.32,0-1.16-.34-2-1.01-2.5-.68-.51-1.94-.94-3.79-1.29-2.43-.52-4.16-1.19-5.18-2.01-1.02-.82-1.53-2.19-1.53-4.12,0-3.86,2.32-5.79,6.96-5.79,1.52,0,3.34.15,5.46.47l1.06.16-.22,2.02c-2.89-.35-4.94-.53-6.15-.53"/>
        </g>
        <text class="cls-4" transform="translate(40.54 131.03)"><tspan class="cls-7" x="0" y="0">A</tspan><tspan class="cls-3" x="9.25" y="0">v</tspan><tspan x="16.38" y="0">. Barão de </tspan><tspan class="cls-8" x="86.81" y="0">S</tspan><tspan class="cls-6" x="95.34" y="0">tudart, 2360 </tspan><tspan class="cls-10" x="183.53" y="0">-</tspan><tspan x="190.38" y="0">Alde</tspan><tspan class="cls-1" x="220.16" y="0">o</tspan><tspan x="228.54" y="0">ta, </tspan><tspan class="cls-7" x="249.26" y="0">F</tspan><tspan x="257.39" y="0">ortaleza - CE</tspan></text>
        <text class="cls-4" transform="translate(40.54 153.03)"><tspan class="cls-5" x="0" y="0">c</tspan><tspan x="6.88" y="0">o</tspan><tspan class="cls-9" x="15.33" y="0">n</tspan><tspan class="cls-6" x="23.87" y="0">tato@vianapei</tspan><tspan class="cls-2" x="123.04" y="0">x</tspan><tspan class="cls-1" x="130.08" y="0">o</tspan><tspan x="138.46" y="0">to.</tspan><tspan class="cls-5" x="155.98" y="0">c</tspan><tspan class="cls-6" x="162.86" y="0">om.br</tspan></text>
        <text class="cls-4" transform="translate(40.54 175.03)"><tspan x="0" y="0">(85) 3033-6161</tspan></text>
      </g>
    </g>
  </g>
</svg>