<?xml version="1.0" encoding="UTF-8"?>
<svg id="Camada_2" data-name="Camada 2" xmlns="http://www.w3.org/2000/svg" viewBox="0 0 139 86.32">
  <defs>
    <style>
      .cls-1 {
        fill: #758592;
      }
    </style>
  </defs>
  <g id="Layer_11" data-name="Layer 11">
    <g>
      <polygon class="cls-1" points="4.74 50.51 4.25 49.7 82.6 31.14 82.8 32.02 4.74 50.51"/>
      <polygon class="cls-1" points="11.57 61.35 11.11 60.58 84.79 16.5 85.26 17.27 11.57 61.35"/>
      <polygon class="cls-1" points="96.32 43.24 97.88 43.24 95.62 52.46 92.68 52.46 90.41 43.24 91.98 43.24 93.81 51.14 94.49 51.14 96.32 43.24"/>
      <rect class="cls-1" x="99.89" y="43.24" width="1.5" height="9.21"/>
      <path class="cls-1" d="m106.84,44.49l-1.15,4.67h2.95l-1.13-4.67h-.67Zm-3.44,7.96l2.28-9.21h2.98l2.29,9.21h-1.51l-.5-1.98h-3.55l-.5,1.98h-1.5Z"/>
      <polygon class="cls-1" points="112.5 52.46 112.5 43.24 115.12 43.24 117.92 51.14 118.12 51.14 118.12 43.24 119.62 43.24 119.62 52.46 117.06 52.46 114.19 44.55 114 44.55 114 52.46 112.5 52.46"/>
      <path class="cls-1" d="m124.62,44.49l-1.15,4.67h2.95l-1.13-4.67h-.67Zm-3.44,7.96l2.28-9.21h2.98l2.29,9.21h-1.51l-.5-1.98h-3.55l-.5,1.98h-1.5Z"/>
      <path class="cls-1" d="m70.75,59.51h1.87c1.08,0,1.62-.65,1.62-1.96,0-.63-.13-1.09-.39-1.37-.26-.29-.67-.43-1.23-.43h-1.87v3.77Zm1.89,1.29h-1.89v2.86h-1.5v-9.21h3.39c2.09,0,3.14,1.03,3.14,3.09,0,1.06-.26,1.86-.79,2.42-.53.56-1.31.83-2.35.83"/>
      <polygon class="cls-1" points="77.45 63.66 77.45 54.45 83.28 54.45 83.28 55.76 78.95 55.76 78.95 58.36 82.47 58.36 82.47 59.66 78.95 59.66 78.95 62.35 83.28 62.35 83.28 63.66 77.45 63.66"/>
      <rect class="cls-1" x="85.58" y="54.45" width="1.5" height="9.21"/>
      <polygon class="cls-1" points="90.68 54.45 92.67 58.08 94.68 54.45 96.25 54.45 93.52 59.13 96.25 63.66 94.58 63.66 92.6 60.19 90.57 63.66 89 63.66 91.75 59.21 89 54.45 90.68 54.45"/>
      <path class="cls-1" d="m99.08,61.71c.31.53.89.79,1.75.79s1.45-.26,1.75-.78c.3-.52.45-1.39.45-2.62s-.16-2.11-.47-2.67c-.31-.56-.89-.83-1.73-.83s-1.42.28-1.74.83c-.31.56-.47,1.44-.47,2.66s.15,2.09.46,2.62m4.67.97c-.55.75-1.53,1.13-2.92,1.13s-2.37-.38-2.93-1.14c-.56-.76-.84-1.95-.84-3.57s.28-2.83.84-3.62c.56-.79,1.54-1.18,2.92-1.18s2.36.39,2.91,1.18c.56.78.84,1.99.84,3.62s-.28,2.82-.83,3.58"/>
      <polygon class="cls-1" points="105.03 55.78 105.03 54.45 111.78 54.45 111.78 55.78 109.18 55.78 109.18 63.66 107.66 63.66 107.66 55.78 105.03 55.78"/>
      <path class="cls-1" d="m114.24,61.71c.31.53.89.79,1.75.79s1.45-.26,1.75-.78c.3-.52.45-1.39.45-2.62s-.16-2.11-.47-2.67c-.31-.56-.89-.83-1.73-.83s-1.42.28-1.74.83c-.31.56-.47,1.44-.47,2.66s.15,2.09.46,2.62m4.67.97c-.55.75-1.53,1.13-2.92,1.13s-2.37-.38-2.93-1.14c-.56-.76-.84-1.95-.84-3.57s.28-2.83.84-3.62c.56-.79,1.53-1.18,2.92-1.18s2.36.39,2.91,1.18c.56.78.84,1.99.84,3.62s-.28,2.82-.83,3.58"/>
      <path class="cls-1" d="m46.04,66.71l-1.39,5.01h3.47l-1.39-5.01h-.69Zm-3.29,8.27l2.52-9.14h2.22l2.52,9.14h-1.01l-.66-2.35h-3.92l-.66,2.35h-1.01Z"/>
      <path class="cls-1" d="m57.73,70.28c0-1.75-.39-2.84-1.18-3.28-.32-.18-.71-.26-1.17-.26h-2.25v7.34h2.25c1.56,0,2.34-1.27,2.34-3.8m-2.34,4.7h-3.27v-9.14h3.27c1.49,0,2.48.59,2.97,1.77.28.68.42,1.57.42,2.67,0,2.3-.57,3.75-1.72,4.34-.46.24-1.02.36-1.67.36"/>
      <polygon class="cls-1" points="66.37 65.84 67.43 65.84 65.03 74.98 62.75 74.98 60.36 65.84 61.42 65.84 63.52 74.08 64.26 74.08 66.37 65.84"/>
      <path class="cls-1" d="m70.05,70.45c0,1.34.18,2.3.53,2.89.35.59,1.04.88,2.05.88s1.69-.29,2.04-.86c.35-.57.52-1.53.52-2.88s-.18-2.33-.54-2.94c-.36-.62-1.04-.93-2.03-.93s-1.67.31-2.03.92c-.36.61-.54,1.59-.54,2.93m6.2.03c0,1.63-.26,2.81-.78,3.54-.52.73-1.47,1.1-2.84,1.1s-2.32-.37-2.84-1.12c-.52-.75-.78-1.93-.78-3.53s.26-2.8.79-3.58c.53-.78,1.47-1.17,2.82-1.17s2.29.39,2.83,1.16c.53.77.8,1.98.8,3.61"/>
      <path class="cls-1" d="m82.41,71.21v-.91h2.53v4.49c-1.11.21-2.11.32-2.98.32-1.33,0-2.26-.38-2.78-1.15-.52-.77-.77-1.95-.77-3.55s.26-2.78.77-3.55c.52-.77,1.43-1.16,2.75-1.16.82,0,1.67.09,2.56.26l.45.08-.04.85c-1.09-.18-2.04-.28-2.85-.28-1.02,0-1.7.29-2.05.88-.35.59-.53,1.56-.53,2.92s.18,2.33.53,2.92,1.03.88,2.04.88c.62,0,1.25-.06,1.89-.18v-2.81h-1.52Z"/>
      <path class="cls-1" d="m90.08,66.71l-1.39,5.01h3.47l-1.39-5.01h-.69Zm-3.29,8.27l2.52-9.14h2.22l2.52,9.14h-1.01l-.66-2.35h-3.92l-.66,2.35h-1.01Z"/>
      <path class="cls-1" d="m101.77,70.28c0-1.75-.39-2.84-1.18-3.28-.32-.18-.71-.26-1.17-.26h-2.25v7.34h2.25c1.56,0,2.34-1.27,2.34-3.8m-2.34,4.7h-3.27v-9.14h3.27c1.49,0,2.48.59,2.97,1.77.28.68.42,1.57.42,2.67,0,2.3-.57,3.75-1.72,4.34-.46.24-1.02.36-1.67.36"/>
      <path class="cls-1" d="m106.04,70.45c0,1.34.18,2.3.53,2.89.35.59,1.04.88,2.05.88s1.69-.29,2.04-.86c.35-.57.52-1.53.52-2.88s-.18-2.33-.54-2.94c-.36-.62-1.04-.93-2.03-.93s-1.67.31-2.03.92c-.36.61-.54,1.59-.54,2.93m6.2.03c0,1.63-.26,2.81-.78,3.54-.52.73-1.47,1.1-2.84,1.1s-2.32-.37-2.84-1.12c-.52-.75-.78-1.93-.78-3.53s.26-2.8.79-3.58c.53-.78,1.47-1.17,2.82-1.17s2.29.39,2.83,1.16c.53.77.8,1.98.8,3.61"/>
      <path class="cls-1" d="m117.3,66.59c-1.33,0-1.99.5-1.99,1.49,0,.56.15.94.46,1.14.3.21.92.41,1.85.62.93.21,1.59.47,1.98.81.39.33.58.87.58,1.63,0,1.88-.98,2.81-2.93,2.81-.65,0-1.45-.07-2.42-.22l-.48-.07.11-.85c1.2.16,2.11.24,2.74.24,1.31,0,1.96-.61,1.96-1.84,0-.49-.14-.85-.43-1.06-.29-.22-.82-.4-1.61-.55-1.03-.22-1.77-.5-2.2-.85-.43-.35-.65-.93-.65-1.75,0-1.64.98-2.46,2.95-2.46.64,0,1.42.07,2.32.2l.45.07-.09.86c-1.23-.15-2.1-.22-2.61-.22"/>
      <path class="cls-1" d="m63.55,77.92l-1.39,5.01h3.47l-1.39-5.01h-.69Zm-3.29,8.27l2.52-9.14h2.22l2.52,9.14h-1.01l-.66-2.35h-3.92l-.66,2.35h-1.01Z"/>
      <path class="cls-1" d="m72.07,77.8c-1.33,0-1.99.5-1.99,1.49,0,.56.15.94.46,1.14.3.21.92.41,1.85.62.93.21,1.59.47,1.98.81.39.33.58.87.58,1.63,0,1.88-.98,2.81-2.93,2.81-.65,0-1.45-.07-2.42-.22l-.48-.07.11-.85c1.2.16,2.11.24,2.74.24,1.31,0,1.96-.61,1.96-1.84,0-.49-.14-.85-.43-1.06-.29-.22-.82-.4-1.61-.55-1.03-.22-1.77-.5-2.2-.85-.43-.35-.65-.93-.65-1.75,0-1.64.98-2.46,2.95-2.46.64,0,1.42.07,2.32.2l.45.07-.09.86c-1.23-.15-2.1-.22-2.61-.22"/>
      <path class="cls-1" d="m79.91,77.8c-1.33,0-1.99.5-1.99,1.49,0,.56.15.94.46,1.14.3.21.92.41,1.85.62.93.21,1.59.47,1.98.81.39.33.58.87.58,1.63,0,1.88-.98,2.81-2.93,2.81-.64,0-1.45-.07-2.42-.22l-.48-.07.11-.85c1.2.16,2.11.24,2.74.24,1.31,0,1.96-.61,1.96-1.84,0-.49-.14-.85-.43-1.06-.29-.22-.82-.4-1.61-.55-1.03-.22-1.77-.5-2.2-.85-.43-.35-.65-.93-.65-1.75,0-1.64.98-2.46,2.95-2.46.64,0,1.42.07,2.32.2l.45.07-.09.86c-1.23-.15-2.1-.22-2.61-.22"/>
      <path class="cls-1" d="m85.9,81.66c0,1.34.18,2.3.53,2.89.35.59,1.04.88,2.05.88s1.69-.29,2.04-.86c.35-.57.52-1.53.52-2.88s-.18-2.33-.54-2.94c-.36-.62-1.04-.93-2.03-.93s-1.67.31-2.03.92c-.36.61-.54,1.59-.54,2.93m6.2.03c0,1.63-.26,2.81-.78,3.54-.52.73-1.47,1.1-2.84,1.1s-2.32-.37-2.84-1.12c-.52-.75-.78-1.93-.78-3.53s.26-2.8.79-3.58c.53-.78,1.47-1.17,2.82-1.17s2.29.39,2.83,1.16c.53.78.8,1.98.8,3.61"/>
      <path class="cls-1" d="m100.16,86.04c-.91.18-1.73.28-2.45.28s-1.31-.1-1.76-.3c-.45-.2-.79-.51-1.03-.92-.24-.42-.41-.9-.5-1.44-.09-.54-.14-1.22-.14-2.03s.05-1.49.14-2.04c.09-.55.26-1.04.5-1.46.24-.42.59-.73,1.03-.93.44-.19,1.01-.29,1.72-.29s1.54.1,2.49.29l-.04.86c-.89-.16-1.69-.24-2.38-.24-.97,0-1.61.29-1.93.87s-.47,1.56-.47,2.95c0,.7.03,1.26.09,1.68.06.42.17.8.34,1.14.17.34.41.58.73.73.32.14.8.22,1.42.22s1.36-.08,2.2-.24l.04.87Z"/>
      <rect class="cls-1" x="102.5" y="77.05" width="1.02" height="9.14"/>
      <path class="cls-1" d="m108.89,77.92l-1.39,5.01h3.47l-1.39-5.01h-.69Zm-3.29,8.27l2.52-9.14h2.22l2.52,9.14h-1.01l-.66-2.35h-3.92l-.66,2.35h-1.01Z"/>
      <path class="cls-1" d="m120.59,81.48c0-1.75-.39-2.84-1.18-3.28-.32-.18-.71-.26-1.17-.26h-2.25v7.34h2.25c1.56,0,2.34-1.27,2.34-3.8m-2.34,4.7h-3.27v-9.14h3.27c1.49,0,2.48.59,2.97,1.77.28.68.42,1.57.42,2.67,0,2.3-.57,3.75-1.72,4.34-.46.24-1.02.36-1.67.36"/>
      <path class="cls-1" d="m124.85,81.66c0,1.34.18,2.3.53,2.89.35.59,1.04.88,2.05.88s1.69-.29,2.04-.86c.35-.57.52-1.53.52-2.88s-.18-2.33-.54-2.94c-.36-.62-1.04-.93-2.03-.93s-1.67.31-2.03.92c-.36.61-.54,1.59-.54,2.93m6.2.03c0,1.63-.26,2.81-.78,3.54-.52.73-1.47,1.1-2.84,1.1s-2.32-.37-2.84-1.12c-.52-.75-.78-1.93-.78-3.53s.26-2.8.79-3.58c.53-.78,1.47-1.17,2.82-1.17s2.29.39,2.83,1.16c.53.78.8,1.98.8,3.61"/>
      <path class="cls-1" d="m136.11,77.8c-1.32,0-1.99.5-1.99,1.49,0,.56.15.94.46,1.14.3.21.92.41,1.85.62.93.21,1.59.47,1.98.81.39.33.58.87.58,1.63,0,1.88-.98,2.81-2.93,2.81-.65,0-1.45-.07-2.42-.22l-.48-.07.11-.85c1.2.16,2.11.24,2.74.24,1.31,0,1.96-.61,1.96-1.84,0-.49-.14-.85-.43-1.06-.29-.22-.82-.4-1.61-.55-1.03-.22-1.77-.5-2.2-.85-.43-.35-.65-.93-.65-1.75,0-1.64.98-2.46,2.95-2.46.64,0,1.42.07,2.32.2l.45.07-.09.86c-1.23-.15-2.1-.22-2.61-.22"/>
      <path class="cls-1" d="m50.54,42.34h13.93c.63,0,14.11.93,19.66-14.77,5.06-14.3-7.41-24.47-9.82-26.27l-23.77,41.04Zm-48.98.9l23.59,41.15,23.83-41.15H1.56Zm23.58,42.96L0,42.34h49.5L74.02,0l.4.27c.16.11,16.35,11.23,10.56,27.6-5.78,16.37-20.39,15.38-20.55,15.37h-14.42s-24.88,42.96-24.88,42.96Z"/>
      <polygon class="cls-1" points="17.96 73.51 17.55 72.62 79.26 4.98 79.93 5.59 17.96 73.51"/>
    </g>
  </g>
</svg>