<?xml version="1.0" encoding="UTF-8"?>
<svg id="Camada_2" data-name="Camada 2" xmlns="http://www.w3.org/2000/svg" viewBox="0 0 66.68 44.04">
  <defs>
    <style>
      .cls-1 {
        fill: #e4e4e4;
      }
    </style>
  </defs>
  <g id="Layer_7" data-name="Layer 7">
    <g id="Layer_3" data-name="Layer 3">
      <g>
        <g id="ARC">
          <path class="cls-1" d="m9.58,35.89c-.06,0-.13,0-.19-.01-3.05-.44-5.97-1.4-8.69-2.84-.65-.35-.9-1.15-.55-1.81.35-.65,1.15-.89,1.81-.55,2.44,1.3,5.07,2.16,7.81,2.56.73.11,1.23.78,1.13,1.51-.1.67-.67,1.14-1.32,1.14h0Z"/>
        </g>
        <g id="ARC-2" data-name="ARC">
          <path class="cls-1" d="m57.09,35.89c-.65,0-1.22-.48-1.32-1.14-.1-.73.4-1.41,1.13-1.51,2.74-.39,5.37-1.25,7.81-2.56.65-.35,1.46-.1,1.81.55.35.65.1,1.46-.55,1.81-2.72,1.45-5.64,2.4-8.69,2.84-.07,0-.13.01-.19.01Z"/>
        </g>
        <g id="ARC-3" data-name="ARC">
          <path class="cls-1" d="m43.15,23.92c-.25,0-.5-.07-.73-.22-.62-.4-.79-1.23-.39-1.85,1.89-2.9,5.08-4.63,8.54-4.63.74,0,1.33.6,1.33,1.33s-.6,1.33-1.33,1.33c-2.55,0-4.91,1.28-6.31,3.42-.25.39-.68.61-1.12.61Z"/>
        </g>
        <g id="CIRCLE">
          <path class="cls-1" d="m53.53,19.9c-4.73,0-8.72-3.99-8.72-8.72s3.99-8.72,8.72-8.72,8.72,3.99,8.72,8.72-3.99,8.72-8.72,8.72Zm0-14.77c-3.28,0-6.05,2.77-6.05,6.05s2.77,6.05,6.05,6.05,6.05-2.77,6.05-6.05-2.77-6.05-6.05-6.05Z"/>
        </g>
        <g id="ARC-4" data-name="ARC">
          <path class="cls-1" d="m65.34,28.76c-.74,0-1.33-.6-1.33-1.33,0-4.15-3.38-7.53-7.53-7.53-.74,0-1.33-.6-1.33-1.33s.6-1.33,1.33-1.33c5.62,0,10.2,4.58,10.2,10.2,0,.74-.6,1.33-1.33,1.33Z"/>
        </g>
        <g id="LINE">
          <path class="cls-1" d="m56.48,19.9h-5.91c-.74,0-1.33-.6-1.33-1.33s.6-1.33,1.33-1.33h5.91c.74,0,1.33.6,1.33,1.33s-.6,1.33-1.33,1.33Z"/>
        </g>
        <g id="LINE-2" data-name="LINE">
          <path class="cls-1" d="m65.34,33.19c-.74,0-1.33-.6-1.33-1.33v-4.43c0-.74.6-1.33,1.33-1.33s1.33.6,1.33,1.33v4.43c0,.74-.6,1.33-1.33,1.33h0Z"/>
        </g>
        <g id="ARC-5" data-name="ARC">
          <path class="cls-1" d="m17.58,34.18c-.74,0-1.33-.6-1.33-1.33,0-7.25,5.9-13.15,13.15-13.15.74,0,1.33.6,1.33,1.33s-.6,1.33-1.33,1.33c-5.78,0-10.48,4.7-10.48,10.48,0,.74-.6,1.33-1.33,1.33Z"/>
        </g>
        <g id="LINE-3" data-name="LINE">
          <path class="cls-1" d="m37.28,22.36h-7.88c-.74,0-1.33-.6-1.33-1.33s.6-1.33,1.33-1.33h7.88c.74,0,1.33.6,1.33,1.33s-.6,1.33-1.33,1.33Z"/>
        </g>
        <g id="ARC-6" data-name="ARC">
          <path class="cls-1" d="m23.53,23.92c-.44,0-.86-.21-1.12-.61-1.39-2.14-3.75-3.42-6.31-3.42-.74,0-1.33-.6-1.33-1.33s.6-1.33,1.33-1.33c3.46,0,6.65,1.73,8.54,4.63.4.62.23,1.44-.39,1.85-.23.15-.48.22-.73.22Z"/>
        </g>
        <g id="LINE-4" data-name="LINE">
          <path class="cls-1" d="m17.58,40.09c-.74,0-1.33-.6-1.33-1.33v-5.91c0-.74.6-1.33,1.33-1.33s1.33.6,1.33,1.33v5.91c0,.74-.6,1.33-1.33,1.33Z"/>
        </g>
        <g id="CIRCLE-2" data-name="CIRCLE">
          <path class="cls-1" d="m33.34,22.36c-6.06,0-11.18-5.12-11.18-11.18S27.28,0,33.34,0s11.18,5.12,11.18,11.18-5.12,11.18-11.18,11.18Zm0-19.7c-4.62,0-8.51,3.9-8.51,8.51s3.9,8.51,8.51,8.51,8.51-3.9,8.51-8.51-3.9-8.51-8.51-8.51Z"/>
        </g>
        <g id="ARC-7" data-name="ARC">
          <path class="cls-1" d="m49.09,34.18c-.74,0-1.33-.6-1.33-1.33,0-5.78-4.7-10.48-10.48-10.48-.74,0-1.33-.6-1.33-1.33s.6-1.33,1.33-1.33c7.25,0,13.15,5.9,13.15,13.15,0,.74-.6,1.33-1.33,1.33Z"/>
        </g>
        <g id="LINE-5" data-name="LINE">
          <path class="cls-1" d="m49.09,40.09c-.74,0-1.33-.6-1.33-1.33v-5.91c0-.74.6-1.33,1.33-1.33s1.33.6,1.33,1.33v5.91c0,.74-.6,1.33-1.33,1.33Z"/>
        </g>
        <g id="ARC-8" data-name="ARC">
          <path class="cls-1" d="m33.34,44.04c-5.63,0-11.25-1.37-16.38-4.1-.65-.35-.9-1.15-.55-1.81.35-.65,1.15-.89,1.81-.55,9.47,5.05,20.78,5.05,30.26,0,.65-.35,1.46-.1,1.81.55.35.65.1,1.46-.55,1.81-5.13,2.73-10.76,4.1-16.38,4.1h0Z"/>
        </g>
        <g id="CIRCLE-3" data-name="CIRCLE">
          <path class="cls-1" d="m13.15,19.9c-4.73,0-8.72-3.99-8.72-8.72S8.42,2.46,13.15,2.46s8.72,3.99,8.72,8.72-3.99,8.72-8.72,8.72Zm0-14.77c-3.28,0-6.05,2.77-6.05,6.05s2.77,6.05,6.05,6.05,6.05-2.77,6.05-6.05-2.77-6.05-6.05-6.05Z"/>
        </g>
        <g id="ARC-9" data-name="ARC">
          <path class="cls-1" d="m1.33,28.76C.6,28.76,0,28.17,0,27.43,0,21.81,4.58,17.23,10.2,17.23c.74,0,1.33.6,1.33,1.33s-.6,1.33-1.33,1.33c-4.15,0-7.53,3.38-7.53,7.53,0,.74-.6,1.33-1.33,1.33Z"/>
        </g>
        <g id="LINE-6" data-name="LINE">
          <path class="cls-1" d="m16.11,19.9h-5.91c-.74,0-1.33-.6-1.33-1.33s.6-1.33,1.33-1.33h5.91c.74,0,1.33.6,1.33,1.33s-.6,1.33-1.33,1.33Z"/>
        </g>
        <g id="LINE-7" data-name="LINE">
          <path class="cls-1" d="m1.33,33.19C.6,33.19,0,32.6,0,31.86v-4.43c0-.74.6-1.33,1.33-1.33s1.33.6,1.33,1.33v4.43c0,.74-.6,1.33-1.33,1.33h0Z"/>
        </g>
      </g>
    </g>
  </g>
</svg>