<?xml version="1.0" encoding="UTF-8"?>
<svg id="Camada_2" data-name="Camada 2" xmlns="http://www.w3.org/2000/svg" viewBox="0 0 21.95 21.96">
  <defs>
    <style>
      .cls-1 {
        fill: #fff;
      }
    </style>
  </defs>
  <g id="Layer_9" data-name="Layer 9">
    <g id="Layer_10" data-name="Layer 10">
      <g>
        <path class="cls-1" d="m21.9,6.46c-.05-1.17-.24-1.97-.51-2.66-.28-.74-.71-1.4-1.27-1.95-.55-.56-1.21-.99-1.94-1.27-.7-.27-1.5-.46-2.66-.51-1.18-.06-1.55-.07-4.53-.07s-3.35.01-4.53.06c-1.17.05-1.97.24-2.66.51-.74.28-1.4.71-1.95,1.27-.56.55-.99,1.21-1.27,1.94-.27.7-.46,1.5-.51,2.66-.06,1.18-.07,1.55-.07,4.53s.01,3.35.06,4.53c.05,1.17.24,1.97.51,2.66.28.74.71,1.4,1.27,1.95.55.56,1.21.99,1.94,1.27.7.27,1.5.46,2.66.51,1.17.05,1.54.06,4.53.06s3.35-.01,4.53-.06c1.17-.05,1.97-.24,2.66-.51,1.48-.57,2.64-1.74,3.21-3.21.27-.7.46-1.5.51-2.66.05-1.17.06-1.54.06-4.53s0-3.35-.06-4.53Zm-1.98,8.96c-.05,1.07-.23,1.65-.38,2.04-.37.96-1.13,1.72-2.08,2.08-.39.15-.97.33-2.04.38-1.16.05-1.51.06-4.44.06s-3.28-.01-4.44-.06c-1.07-.05-1.65-.23-2.04-.38-.48-.18-.91-.45-1.26-.82-.36-.36-.64-.78-.82-1.26-.15-.39-.33-.97-.38-2.04-.05-1.16-.06-1.51-.06-4.44s.01-3.28.06-4.44c.05-1.07.23-1.65.38-2.04.18-.48.45-.91.82-1.26.36-.36.78-.64,1.26-.82.39-.15.97-.33,2.04-.38,1.16-.05,1.51-.06,4.44-.06s3.28.01,4.44.06c1.07.05,1.65.23,2.04.38.48.18.91.45,1.26.82.36.36.64.78.82,1.26.15.39.33.97.38,2.04.05,1.16.06,1.51.06,4.44s-.01,3.27-.06,4.43Z"/>
        <path class="cls-1" d="m10.98,5.34c-3.11,0-5.64,2.53-5.64,5.64s2.53,5.64,5.64,5.64,5.64-2.53,5.64-5.64-2.53-5.64-5.64-5.64Zm0,9.3c-2.02,0-3.66-1.64-3.66-3.66s1.64-3.66,3.66-3.66,3.66,1.64,3.66,3.66-1.64,3.66-3.66,3.66Z"/>
        <path class="cls-1" d="m18.16,5.12c0,.73-.59,1.32-1.32,1.32s-1.32-.59-1.32-1.32.59-1.32,1.32-1.32,1.32.59,1.32,1.32Z"/>
      </g>
    </g>
  </g>
</svg>