<?xml version="1.0" encoding="UTF-8"?>
<svg id="Camada_2" data-name="Camada 2" xmlns="http://www.w3.org/2000/svg" viewBox="0 0 22 22">
  <defs>
    <style>
      .cls-1 {
        fill: #fff;
      }
    </style>
  </defs>
  <g id="Layer_9" data-name="Layer 9">
    <g id="Layer_10" data-name="Layer 10">
      <path class="cls-1" d="m11,0C4.93,0,0,4.93,0,11s4.93,11,11,11,11-4.93,11-11S17.07,0,11,0Zm-3.2,16.63h-2.68v-8.06h2.68v8.06Zm-1.34-9.16h-.02c-.9,0-1.48-.62-1.48-1.39s.6-1.39,1.52-1.39,1.48.6,1.5,1.39c0,.77-.58,1.39-1.52,1.39Zm11,9.16h-2.68v-4.31c0-1.08-.39-1.82-1.36-1.82-.74,0-1.18.5-1.37.98-.07.17-.09.41-.09.65v4.5h-2.68s.04-7.3,0-8.06h2.68v1.14c.36-.55.99-1.33,2.41-1.33,1.76,0,3.08,1.15,3.08,3.63v4.62Z"/>
    </g>
  </g>
</svg>