<?xml version="1.0" encoding="UTF-8"?>
<svg id="Camada_2" data-name="Camada 2" xmlns="http://www.w3.org/2000/svg" viewBox="0 0 13.09 13.09">
  <defs>
    <style>
      .cls-1 {
        fill: #e4e4e4;
      }
    </style>
  </defs>
  <g id="Cabeçalho">
    <g id="Layer_4" data-name="Layer 4">
      <path class="cls-1" d="m13.06,10.14c-.04-.11-.27-.28-.71-.49-.12-.07-.29-.16-.5-.28-.22-.12-.41-.23-.59-.33-.18-.1-.34-.2-.5-.29-.02-.02-.1-.07-.23-.16-.13-.09-.24-.16-.33-.2-.09-.04-.18-.06-.26-.06-.12,0-.28.09-.46.26-.19.18-.36.37-.51.58-.15.21-.32.4-.49.58-.17.18-.32.26-.43.26-.06,0-.13-.02-.21-.05-.08-.03-.15-.06-.19-.08-.04-.02-.12-.07-.22-.13-.11-.07-.16-.1-.18-.11-.85-.47-1.58-1.01-2.18-1.62-.61-.61-1.15-1.34-1.62-2.18,0-.01-.04-.07-.11-.18-.07-.11-.11-.18-.13-.22-.02-.04-.05-.11-.08-.19s-.05-.15-.05-.21c0-.11.09-.25.26-.43.18-.17.37-.34.58-.49.21-.15.4-.33.58-.51.18-.19.26-.34.26-.46,0-.09-.02-.18-.07-.26-.04-.09-.11-.2-.2-.33-.09-.13-.14-.21-.16-.23-.09-.15-.19-.32-.29-.5-.1-.18-.21-.37-.33-.59-.12-.22-.21-.38-.28-.5-.22-.43-.38-.67-.49-.71-.04-.02-.11-.03-.2-.03-.17,0-.39.03-.66.09-.27.06-.48.13-.64.2-.31.13-.64.51-.99,1.13-.32.58-.47,1.16-.47,1.73,0,.17.01.33.03.49.02.16.06.34.12.53.06.2.1.35.13.44.03.1.1.27.19.52.09.25.15.4.17.46.22.61.47,1.15.77,1.63.49.79,1.16,1.61,2,2.46.85.85,1.67,1.51,2.46,2,.48.3,1.02.55,1.63.77.06.02.21.07.46.17.25.09.42.16.52.19.1.03.24.08.44.13.2.06.38.09.53.12.16.02.32.03.49.03.57,0,1.15-.16,1.73-.47.63-.35,1-.68,1.13-.99.07-.15.13-.37.2-.64.06-.27.09-.49.09-.66,0-.09,0-.15-.03-.2Z"/>
    </g>
  </g>
</svg>