<?xml version="1.0" encoding="UTF-8"?>
<svg id="Camada_2" data-name="Camada 2" xmlns="http://www.w3.org/2000/svg" viewBox="0 0 53.52 44.03">
  <defs>
    <style>
      .cls-1 {
        fill: #e4e4e4;
      }
    </style>
  </defs>
  <g id="Layer_7" data-name="Layer 7">
    <g>
      <path class="cls-1" d="m51.09,24.34c-.73,0-1.22.46-1.22,1.16v15.06c0,.7-.49,1.16-1.22,1.16H4.87c-.73,0-1.22-.46-1.22-1.16v-15.06c0-.7-.49-1.16-1.22-1.16s-1.22.46-1.22,1.16v15.06c0,1.97,1.58,3.48,3.65,3.48h43.79c2.07,0,3.65-1.51,3.65-3.48v-15.06c0-.7-.49-1.16-1.22-1.16Z"/>
      <path class="cls-1" d="m49.87,8.11H3.65c-2.07,0-3.65,1.51-3.65,3.48v7.42c0,1.62,1.22,3.01,2.8,3.36l19.1,4.06v3.71c0,.7.49,1.16,1.22,1.16h7.3c.73,0,1.22-.46,1.22-1.16v-3.71l19.1-4.06c1.58-.35,2.8-1.74,2.8-3.36v-7.42c0-1.97-1.58-3.48-3.65-3.48Zm-20.68,20.86h-4.87v-4.64h4.87v4.64Zm21.9-9.97c0,.58-.36,1.04-.97,1.16l-18.49,3.94v-.93c0-.7-.49-1.16-1.22-1.16h-7.3c-.73,0-1.22.46-1.22,1.16v.93l-18.49-3.94c-.61-.12-.97-.58-.97-1.16v-7.42c0-.7.49-1.16,1.22-1.16h46.22c.73,0,1.22.46,1.22,1.16v7.42Z"/>
      <path class="cls-1" d="m32.84,0h-12.16c-2.07,0-3.65,1.51-3.65,3.48v1.16c0,.7.49,1.16,1.22,1.16s1.22-.46,1.22-1.16v-1.16c0-.7.49-1.16,1.22-1.16h12.16c.73,0,1.22.46,1.22,1.16v1.16c0,.7.49,1.16,1.22,1.16s1.22-.46,1.22-1.16v-1.16c0-1.97-1.58-3.48-3.65-3.48Z"/>
    </g>
  </g>
</svg>