<?xml version="1.0" encoding="UTF-8"?>
<svg id="Camada_2" data-name="Camada 2" xmlns="http://www.w3.org/2000/svg" viewBox="0 0 51.29 44.03">
  <defs>
    <style>
      .cls-1 {
        fill: #e4e4e4;
      }
    </style>
  </defs>
  <g id="Layer_7" data-name="Layer 7">
    <g>
      <path class="cls-1" d="m45.72,42.2H5.58c-.62,0-1.12.41-1.12.92s.5.92,1.12.92h40.14c.62,0,1.12-.41,1.12-.92s-.5-.92-1.12-.92Z"/>
      <path class="cls-1" d="m51.25,26.44c-.01-.06-.01-.12-.04-.18v-.02s0,0,0,0l-8.91-18.33s0,0,0,0c-.17-.33-.56-.57-1.03-.57h-14.5v-2c1.3-.38,2.23-1.39,2.23-2.58,0-1.52-1.5-2.75-3.35-2.75s-3.35,1.23-3.35,2.75c0,1.19.93,2.2,2.23,2.58v2h-14.5c-.47,0-.87.24-1.03.57,0,0,0,0,0,0L.09,26.25H.09s0,.02,0,.02c-.03.06-.03.12-.04.18-.01.05-.04.1-.04.16,0,0,0,0,0,.01,0,0,0,.02,0,.02.02,4.54,4.51,8.22,10.03,8.22s10.01-3.68,10.03-8.22c0,0,0-.02,0-.02,0,0,0,0,0-.01,0-.06-.03-.11-.04-.17-.01-.06-.01-.12-.04-.18v-.02s0,0,0,0L11.68,9.17h12.85v29.36h-14.5c-.62,0-1.12.41-1.12.92s.5.92,1.12.92h31.22c.62,0,1.12-.41,1.12-.92s-.5-.92-1.12-.92h-14.5V9.17h12.85l-8.3,17.07h0s0,.02,0,.02c-.03.06-.03.12-.04.18-.01.05-.04.1-.04.16,0,0,0,0,0,.01,0,0,0,.02,0,.02.02,4.54,4.51,8.22,10.03,8.22s10.01-3.68,10.03-8.22c0,0,0-.02,0-.02,0,0,0,0,0-.01,0-.06-.03-.11-.04-.17Zm-41.22,6.59c-3.92,0-7.18-2.4-7.73-5.5h15.45c-.54,3.11-3.8,5.5-7.73,5.5Zm7.27-7.34H2.76l7.27-14.96,7.27,14.96ZM25.65,3.67c-.62,0-1.12-.41-1.12-.92s.5-.92,1.12-.92,1.12.41,1.12.92-.5.92-1.12.92Zm15.61,7.06l7.27,14.96h-14.55l7.27-14.96Zm0,22.3c-3.92,0-7.18-2.4-7.73-5.5h15.45c-.54,3.11-3.8,5.5-7.73,5.5Z"/>
    </g>
  </g>
</svg>