<?xml version="1.0" encoding="UTF-8"?>
<svg id="Camada_2" data-name="Camada 2" xmlns="http://www.w3.org/2000/svg" viewBox="0 0 472.42 88.5">
  <defs>
    <style>
      .cls-1 {
        fill: #4d008c;
      }

      .cls-2, .cls-3 {
        fill: #758592;
      }

      .cls-4 {
        fill: #8d9ebc;
      }

      .cls-3 {
        font-family: TitilliumWeb-Regular, 'Titillium Web';
        font-size: 30px;
      }
    </style>
  </defs>
  <g id="Layer_8" data-name="Layer 8">
    <text class="cls-3" transform="translate(62.34 79.95)"><tspan x="0" y="0">Sede</tspan></text>
    <text class="cls-3" transform="translate(205.21 79.95)"><tspan x="0" y="0">Filiais</tspan></text>
    <text class="cls-3" transform="translate(351.34 79.95)"><tspan x="0" y="0">Sucursais</tspan></text>
  </g>
  <g id="Layer_13" data-name="Layer 13">
    <path class="cls-1" d="m28.65,0C12.85,0,0,12.85,0,28.65c0,4.74,1.19,9.45,3.44,13.62l23.65,42.77c.31.57.91.92,1.57.92s1.25-.35,1.57-.92l23.66-42.78c2.25-4.16,3.43-8.86,3.43-13.6C57.31,12.85,44.45,0,28.65,0Zm0,42.98c-7.9,0-14.33-6.43-14.33-14.33s6.43-14.33,14.33-14.33,14.33,6.43,14.33,14.33-6.43,14.33-14.33,14.33Z"/>
    <path class="cls-4" d="m328.65,48.39c-6.9,0-12.52,5.62-12.52,12.52,0,2.07.52,4.13,1.5,5.95l10.33,18.69c.14.25.4.4.68.4s.55-.15.68-.4l10.34-18.7c.98-1.82,1.5-3.87,1.5-5.94,0-6.9-5.62-12.52-12.52-12.52Zm0,18.78c-3.45,0-6.26-2.81-6.26-6.26s2.81-6.26,6.26-6.26,6.26,2.81,6.26,6.26-2.81,6.26-6.26,6.26Z"/>
    <path class="cls-2" d="m183.65,48.39c-6.9,0-12.52,5.62-12.52,12.52,0,2.07.52,4.13,1.5,5.95l10.33,18.69c.14.25.4.4.68.4s.55-.15.68-.4l10.34-18.7c.98-1.82,1.5-3.87,1.5-5.94,0-6.9-5.62-12.52-12.52-12.52Zm0,18.78c-3.45,0-6.26-2.81-6.26-6.26s2.81-6.26,6.26-6.26,6.26,2.81,6.26,6.26-2.81,6.26-6.26,6.26Z"/>
  </g>
</svg>