<?xml version="1.0" encoding="UTF-8"?>
<svg id="Camada_2" data-name="Camada 2" xmlns="http://www.w3.org/2000/svg" viewBox="0 0 654.53 668.18">
  <defs>
    <style>
      .cls-1 {
        fill: #b1b1b1;
      }

      .cls-1, .cls-2, .cls-3 {
        fill-rule: evenodd;
      }

      .cls-4 {
        fill: #4d008c;
      }

      .cls-2 {
        fill: #cacaca;
      }

      .cls-5 {
        fill: #758592;
      }

      .cls-6 {
        fill: #8d9ebc;
      }

      .cls-3 {
        fill: #979797;
      }

      .cls-7 {
        opacity: .79;
      }
    </style>
  </defs>
  <g id="Layer_13" data-name="Layer 13">
    <g class="cls-7">
      <path class="cls-2" d="m188.27,70.16c-.26-1.93.16-2.5-.67-4.25-1.07-2.25-1.01-1.17-2.56-2.32-2.53-1.88.98-1.47,1.04-6.84-3.8-3.45-4.71-.6-7.58-4.32-2.76-.13-4.64.06-6.7,1.88-1.01.89-.99,1.5-2.63,1.94-1.16.31-2.49.3-3.39.85-2.43,1.51-.92,3.53-2.87,6.26-3.2,4.49-4.1,2.52-5.09,1.83-1.47.92-1.94,1.96-3.8,2.97-1.68.91-3.15.44-4.97,1.72-2.39,1.67-1.32,2.68-2.65,4.05-.78.81-1.43.4-2.47.88-.97.45-.56,1.42-.75,2.65-.72.5-5.58,2.73-5.98.52-.17-.91.33-1.48.75-2.15.7-1.11.55-1.44.69-2.96-5.89.58-5.61,5.89-11.93,3.42-1.82-.71-4.73-1.61-5.83-2.69-1.84-1.8-1.66-2.84-4.76-3.85-1.1.65-.65.93-2.13,1.08-4.33.45-2.4-2.54-2.34-4.96.02-.96-.34-4.26-.44-5.48-.19-2.29-1.55-1.91-2.55-3.19-1.15-1.47-.14-2.74-1.36-4.19-1.2.63-.84.97-1.8,1.92-.99.97-1.21.59-2.65,1.01-1.73.5-1.86,2.19-4.07,3.26-1.99-.57-1-1.35-4.1-1.06.28,1.64,1.83,1.34,1.16,2.96-1.57.85-5.31.04-7.4,0-2.67-.06-4.85.18-7.38.43-2.49.24-4.95.27-7.45.51-2.95.28-3.57-.96-6.05.61-.21,1.46-.16,3.23,0,4.7.73,6.63,5.05,2.09,9.38,3.64.94.34,3.44,3.72,3.89,4.63,1.19,2.44-.33,3.03-1.7,4.39-2.92,2.89-5.15-.23-7.13-1.41-1.62.66-1.41,1.38-3.14,2.08-1.52.61-2.73.41-4.16.99-.41,2.59.35,4.37.37,7.04.02,3.16-.32,3.74,1.78,5.16,3.96,2.7,5.32,1.79,6.01,7.96.43,3.85,1.71,3.39,1.99,5.15.22,1.33-.7,4.63-.89,6.26-.47,4.15-.67,8.6-1.21,12.72-.55,4.22-1.35,7.86-1.69,12.36-.28,3.77-.58,9.09-1.49,12.5-.44,1.63-1.23,3.88-1.55,5.43-.41,2.02-.08,4.38-.73,6.26-.61,1.76-5.16,6.55-7.71,1.94-1.53-2.76-1.3-2.04-4.93-1.97-3.16.06-2.64,1.08-4.23,2.64l-4.56,2.43c-1.41.53-4.97.17-6.73.21-7.87.2-11.24,6.82-17.66,10.42-1.4.78-1.22.49-1.99,1.66-.54.82-.93,1.25-1.4,1.94-1.52,2.27.2,3.8-.58,5.81-.95,2.45-5.93,5.24-5.34,8.49.35,1.95,1.62.44,1.52,5.56-.06,3.01-1.18,3.04-4.07,3.14-2.1.07-3.08,1.45-4.3,2.58-1.38,1.26-1.46,3.52-1.17,5.9,1.53.42,2.68.51,4.28,1.13,2.11.82,1.7,1.16,3.14,2.03,2.33,1.4,12.56,4.94,15.61,5.7,4.16,1.04,23.13,5.85,25.76,6.13,4.41.47,4.8.92,8.34,2.38,2.38.98,5.43,2.02,7.56,3.09,6.43,3.25,14.91,8.86,20.93,11.02,3.36,1.21,4.56,2.12,7.24,3.42,2.36,1.15,5.07,2.02,7.4,3.24,1.84.97,5.26,2.92,7.05,3.61,1.37.52,2.75.71,4.19,1.29,5.04,2.01,2.5.88,7.17-1.12,2.06-.88.83-1.97,1.88-3.32.83-.63,4.93-.71,6.22-.51,2.4.37,2.75,1.48,5.47,1.52,1.79.03,2.04-1.73,4.19-2.45,3.48-1.17,4.18-4.67,6.47.29,1.44-.36,2.17-1.4,2.76-2.66,1.23-2.64-1.68-4.56,5.15-3.66,1.69.22,2.4-.41,3.9-.63,4.81-.71,2.93-2.48,5.23-4.85,1.42-1.46,1.36-.47,1.05-3.19-.23-2.05-.41-2.34.53-3.68,1.52-.19,2.5.32,3.43-.27.76-1.04.22-1.5.83-2.54,1.38-2.38,2.82-3.8,6.15-3.28,3.69.58,8.37-1.01,10.7,1.53,1.47,1.61.51,2.09,3.05,3.34,2.12,1.04,2.53.49,3.48,2.92,1.35,3.49,2.28,3.3,4.27,5.47.65.7.73,1.1,1.25,1.67,4.08.26,2.84-2.69,5.95-1.6,2.13.75,5.09.35,7.56.32,7.17-.08,42.14-.15,46.17-.64.3-3.99-2.02-5.01,2.16-6.96.03-1.05.02-3.78-.32-4.7-.7-1.9-1.88-.73-2.25-2.85.96-2.02,2.96-.99,3.13-3.96.13-2.19,1.07-4.83.68-6.64-.36-1.68-2.09-2.44-2.97-4.34-.69-1.5-.21-1.32-1.23-2.42-2.84-3.06.99-3.28,2.5-5.67,1.04-1.64.59-3.4,1.72-5.27,2.11-3.51,3.29-3.59,4.87-9.12.79-2.78,3.33-6.63,4.85-9.16,2.34-3.9,2.13-6.04,3.76-10.24.65-1.68,1.46-3.18,2.07-4.92l4.19-9.81c3.43-6.65,2.45-7.38,3.84-10.16,1.1-2.19,4.26-7.02,4.78-9.21.35-1.46.35-4.7.59-6.59-7.67,2.02-3.26-1.65-7.06-3.19-2.53-1.03-1.96-.63-3.32-2.46-.76-1.02-2.16-1.47-3.4-2.08-3.38-1.66-4.64-.6-7.69-3.58-3.27-3.19-2.88-.59-4.74-6.56-8.01,1.75-4.14-2.11-7.64-4.49-1.71-1.16-1.89-1.99-3.32-3.38-1.46-1.42-1.46-2.26-1.43-4.86l-1.24-.7c-.36-.21-.67-.35-.91-.92-.59-1.44-.2-8.32-.23-10.12-1.97-.4-6.32.64-8.67.72l-9.83.07c-.81,1.87-1.08,1.34-1.87,2.61-.68,1.08-.35,2.17-1.12,3.44-.85,1.41-3.88,3.58-1.66,5.67.71.67.53-.01,1.07,1.38,1.59,4.09-2.27,3.82-4.75,5.27-5.78,3.39-5.74-2.87-7.59-4.21-2.91-2.11-8.19-.65-8.76,3.12l.65,8.05c.71,5.25-2.87,3.88-4.2,3.78-4.43-.32-3.4-.45-5.17-3.86-.43-.84-1.26-1.47-1.91-2.34-.71-.95-1.29-1.65-2.24-2.33-1.03-.73-2.09-.92-3.05-1.52-.92-.59-1.28-1.79-.77-3.3.34-.99,1.28-1.68,1.99-2.27,1.19-.98,1.06-1.4,1.48-3.09,1.06-4.33-2.96-5.73-3.47-9.47-.19-1.39-.19-2.66-.58-3.96-.32-1.05-.87-2.28-.8-3.36.09-1.45,1.4-2.45,1.18-7.73l-1.53-1.1Z"/>
      <path class="cls-2" d="m345.92,76.23c-1.56-1.76-4-2.04-4.74-2.9-1.53-1.78,1.33-3.39-.41-5.66-1.3-1.71-2.57-2.67-4.8-2.88-1.24-.12-1.74-.1-2.89-.7-1.19-.62-1.13-.56-2.53-1.12-1.93-.78-1.8-2.64-4.13-3.49-2.15-.79-3.74-.83-5.93-1.37-4.9-1.2-1.47-6.83-2.75-11.25-7.34-2.93-8.17.68-10.57,1.27-4.75,1.17-3.81.11-5.98-1.68-1.29.39-2.38,2.13-2.89,3.6,1.71,2.88,2.44,2.81,1.99,7.41-4.02,1.41-3.38.21-6.11-.71-1.29-.43-5.97-.68-7.22-.21-1.67.63-.76,1.15-2.57.25-1.09-.54-1.84-.57-3.25-.77-2.39-.34-4.42.23-6.27.89l-.19,2.87c-2.39.79-6.49-.68-7.86,1.9-.55,1.03-.89,2.34-2.47,2.32-1.93-.03-3.55-1.63-4.9.03-1.3,1.59-.85,2.76-3.08,3.63-1.43.56-4.18.73-5.58.32l.24,26.45c.78.53,1.27.42,2.05.88.9,4.74-.87,2.16,2.08,5.92.54.69.45.7,1.09,1.35.81.82,2.24,1.65,2.73,2.45.9,1.47.1,2.39,1.63,3.31,2.47.73,2.66-.38,4.33-.41.87,1.05,1.1,2.21,1.62,3.52.75,1.9,1.03,1.51,2.52,2.66,1.09.85,1.53,1.75,2.85,2.34,2.62,1.18,4.21.99,7.54,2.8,2.08,1.13,1.3,1.26,2.66,2.51.99.91,2.42.91,3.39,1.78,1.19,1.07.44,1.85,1.83,3.04,2.17.27,2.33-1.07,4.38-.44.08.48-.25,6.3-.35,6.98-.33,2.11-1.37,3.14-2.17,4.83-2.25,4.72-2.75,4.48-4.14,9.85-.85,3.28-3.1,6.47-4.51,9.8-1.37,3.24-2.58,6.88-4.01,9.99-.81,1.77-1.21,3.65-1.67,5.62-1.19,5.14-5.57,9.04-7.08,13.94-.45,1.48-1.4,4.03-2.1,5.21l-2.82,4.18c-1.11,1.78-.76,3.68-1.73,5.26-.94,1.52-2.48,2.24-3.51,3.51.5,1.04.85,1,1.34,1.72.49.72.49,1.35.86,2.18.85,1.89,2.03,2,2.68,3.4.52,1.12.22,1.23,1.02,2.03,2.64,2.63,2.79.16,5.76,9.16.66,1.99,1.61,2.14,2.17,3.61.91,2.41-.79,7.22,1.17,10.69,1.04,1.84,2.3,1.12,4.14,1.95,2.44,1.1,4.45,4.03,5.91,5.97,1.13,1.51,2.14.93,3.69,2.09,1.68,1.26.66,2.28,3.63,2.44,27.99,1.56,55.9,3.57,83.91,5.42,6.88.45,15.47,1.46,22.18,1.33,1.53-3.61.33-3.27.75-6.23.3-2.08,1.96-2.85,3.07-4.22,1.11-1.37,1.82-2.96,3.07-4.24,1.61-1.65,2.08-1.52,2.93-4.38.81-2.75,1.48-2.71,3.28-4.32,2.6-2.33,1.71-.43,2.61-4.67.49-2.29,2.74-2.83,1.32-5.31-1.36-2.37-1.14.3-2.7-4.62-.97-3.07-1.47-2.62.74-5.04,1.82-1.99.4-3.14.23-5.36-.41-5.37,5.58-4.67,8.74-5.75,2.6-.88.55-3.88,2.59-5.04,1-.57,1.74-.14,2.6-1.03.62-.64.67-1.61,1.1-2.56,1.51-3.26,1.49-.24,1.01-5.65-.35-3.93,1.59-3.68,1.48-5.78-1.52-.7-1.03-.44-2.29-1.32-2.43-1.7-5.31,1.55-7.32-1.12.45-1.13,2.16-2.01,2.96-2.75,2.26-2.07,3.01-4.35,6.25-5.32,1.93-.58,2.08-1.15,3.04-2.44,4.54-6.08,3.93-2.25,6.57-3.44,2.78-1.25,3.33-3.63,4.58-6.71,2.18-5.35,2.14-2.95,5.13-6.13,1.73-1.84.51-4.74,3.38-7.89,2.56-2.82,3.17-3.23,2.65-7.81-.76-6.77,2.7-4.4,4.11-6.81.27-.95,0-2.37.27-3.63.59-2.69,3.34-.15,3.57-7.35.07-2.13.83-1.04.63-3.3-.39-4.34,1.15-4.15,1.62-8.95-2.16-.54-3.23-1.42-5.62-1.99-1.58-.38-4.2-1.03-5.6-1.7-1.49-.71-3.45-1.7-4.84-2.47-1.9-1.06-3.38-2.06-5.5-.89-2.78,1.53-1.53-1.45-5.45-.99-2.46.29-4.08-.34-6.29-.71-2.78-.48-3.78.44-5.61-1.65-1.53-1.75-.48-3.4-2.31-4.93-5.13-.8-4.25,1.11-9.73-1.59-1.36-.67-2.37-.95-3.68-1.8-.95-.62-.73-.46-1.4-1.35-4.48-6.02-3.63-4.78-7.99-4.4-4.39.38-2.72-4.15-3.41-7.63-1.61.27-2.7,1.2-3.89,1.75-1.39.65-2.61.87-2.59,2.59.06,4.81-1.8,4.52-4.97,5.68-2.04.75-1.99,1.04-3.05,2.44-1.39,1.83-1,1.44-3.25,2.26-2.08.75-1.56,3.21-4.57,6.35-3.48,3.63-.82,3.4-2.73,7.62-1.71,3.76-3.59,2.47-7.41,3.55-3.12.89-5.79-2.22-6.7-3.75-.91-1.53-.4-2.92-.8-4.7-.57-2.54-1.98-.71-3.16-2.34-.78-1.02-.18-2.06-.5-3.42-.32-1.38-.95-1.2-1.93-2-1.08-.88-2.49-3.29-3.06-4.85-.78-2.14-1.7-3.28-2.65-5.27-1.45-3.03.23-3.33.52-5.67Z"/>
      <path class="cls-2" d="m389.42,278.66c-.04-3.16-2.7-5.76,1.93-10.27,1.69-1.64,1.43-2.54,1.67-5.28.18-1.96,1.16-2.1,2.18-4.79-13.59-.42-27.86-1.77-41.51-2.67-13.76-.91-27.46-1.78-41.2-2.67-6.71-.43-14.11-1.21-20.76-1.34-1.97-.04-2.97.68-4.25-.7-1.19-1.28-.94-1.88-2.88-2.61-3.4-1.28-1.68-1.22-5.68-5.27-4.54-4.6-5.04-1.17-6.9-4.06-1.43-2.23-1.64-6.23-1.33-9.13.25-2.28-.53-2.71-1.43-3.94-1.11-1.52-.9-2.21-1.54-3.94-1.18-3.16-2.03-5.17-4.59-6.28-.89,1.94-.68,3.56-.99,5.66-.32,2.18-2.04,1.9-3.01,3.52,2.81,1.11,2.71,4.39,2.49,7.87-.97.34-1.56.62-2.33,1.21-.3,2.22.73,4.07-.05,5.78-1.72.86-45.78.83-51.82.92-.33,1.9.13,3.51-.22,5.19-.36,1.71-1.42,2.38-.77,3.89.79,1.83,1.23,1.53,1.24,4.22,0,1.63-.25,3.23-.18,4.83.08,1.78.43,3.34.25,5.24-.2,2.24-.75,2.5.58,3.95,1.26,1.36,1.26,1.8.85,4.19-.43,2.51-.61,1.72-2,3.11.57,5.35,1.38,3.26,5.71,3.09,1.82-.07,3.58.16,5.48.12,3.71-.07,7.21-.11,10.24,1.47,2.1,1.1,7.4.64,6.09,5.22-.95,3.34-5.35,1.74-4.53,6.67,4.03,2.22,3.82,1.86,4.5,4.6.42,1.69,3.5,2.84,1.64,6.8-.84,1.78-2.11,1.25-3.49,2.57-.48,1.98.65,2.63-.08,5.12-.73,2.47-1.74,1.58-2.98,2.79-.5.49-.75,1.39-1.13,1.91-.73,1.01-.88.52-1.52,1.21-1.18,1.27.02,3.19-.34,4.85-1.49,1.22-2.33.54-3.09,1.72-.05,1.36-.05.53.87,1.68,6.63,8.3-1.75,3.79,3.04,11.89,2.68,4.53,2.01,5.15,1.75,7.71-.15,1.47.7,3.08-.24,4.27-.85,1.08-1.93.58-3.06,1.75.41,2.4,3.11,1.53,4.08,7.76.59,3.79.45,6.79,1.91,9.99l18.63-.05c6.09.1,14.18-3.04,9.57,6.22-1.5,3.02-.68,4.37.72,7.22.88,1.79,3.13,4.5,4.29,5.45,2.19,1.79,3.74.11,6.66,3.08,3.36,3.41.74,5.13,1.28,6.6,1.49-.48.98-1.38,3.65-1.54,4.58-.26,4.19-.03,8.62-6.86,2.06-3.17,3.95-1.45,7.54-2.81,3.56-1.34,3.59-2.91,7.23-.88,3.08,1.71,5.39.43,7.47,2.88,1.41,1.65.81,1.18,3.27,1.91,4.02,1.21,4.45,4.18,10.51-.38,4.5-3.38,5.89,1.07,6.49,1.36,4.18.57,4.21-1.04,5.96-3.2.87-1.07,2.41-2.97,3.83-3.26.69-.14.48-.13,1.11-.02,2.17.38.8,6.98.47,7.46-.76,1.12-3.31,2.82-3.7,4.15,2.75,2.69,3.92,2.02,5.73,2.05,2.32.04,1.8,1.07,7.17,0-.72-2.17-2.76-5.48-2.35-7.81.26-1.46.88-1.97,1.17-4.06.29-2.08,1.01-6.22,2.41-7.63,2.56-2.59,5.18-2.25,5.74-4.66.51-2.21-.66-1.53-1.46-3.15-.47-2.67,5.99-4.76,7.01-7.08.61-1.39.9-1.72,2.56-2.04,5-.98,3.02.15,5.78-3.31.73-.92,1.89-1.43,2.13-2.52.3-1.38-.59-2.42-.4-4.22.7-1.08,1.23-.89,2.04-1.97,3.5-4.65,1.85-2.64,8.05-2.92.63-1.32.37-1.48.81-2.83.47-1.43.63-.54,1.18-2.18.82-2.46.31-3.89.58-6.42.3-2.78,1.53-3.1,1.74-5.28.23-2.42-.86-3.85.2-6.16.96-2.1,1.95-2.25,2.78-4.22l2.04-8.6c.3-1.8.36-1.51-.24-2.89-1.03-2.35-.38-3.72-.92-6.07-.75-3.26-1.14-1.89-.49-5.88.9-5.51-2.83-3.73-.96-11.84.37-1.62,1.53-4.22,1.51-5.47Z"/>
      <path class="cls-2" d="m501.77,340.43c-.28-6.4,5.72-6.34-5.89-6.86-6.21-.28-10.09,7.09-14.19,9.34-1.83,1-3.34,1.84-4.85,3.06-2.38,1.92-2.19,1.5-5.49,2.41-1.62.45-4.61,1.77-5.8,1.26.86-2.09,2.23,1.08,1.58-5.43-2.18.44-2.52,1.62-3.95,1.35-1.57-.3-1.66-1.74-3.24-1.58-1.96,1.66-.06,4.02-1.89,5.17-1.43,1.26-2.63-.84-3.67-1.29-.71,1.37-.22,2.41-.48,4.07-.19,1.18-.73,2.47-.72,3.75.02,2.05,3.45,4.2,1.62,6.21-.71.81-.95.46-2.3.61-1.37.15-.8.26-1.65.67-1.27.61-2.74.06-4.52.41-1.08,1.97-.23,2.37-.71,4.42-.45,1.91-1.14,1.34-1.12,4.14,1.83,1.18,1.77,1.36,2.65,3.74.56,1.51,2.41,1.22,2.24,4.09-.12,1.95-3.71,3.34-5.46,7.32l1.77.94c3.55,1.45.96,3.96.3,6.33-.75,2.7,1.41,2.49-.61,5.17-2.14,2.83-4.56,3.7-7.79,5.91-2.61,1.79-3.05.8-5.06-.29-2.8-1.52-16.71-.48-18.49.79-1.29.92-2.33,2.61-4.24,2.68-2.47.08-3.3-.44-6.38.07-13.22,2.2-6.68,4.89-12.1,8.62-2.02,1.39-2.55.55-3.47,3.52-.88,2.84-.31,2.54-2.07,4.94-.9,1.23-1.84,3.04-1.98,4.92,5.69.53,3.52-1.25,6.65-2.39.89-.33,6.66-.25,7.78-.12,1.9.23,2.36,2.62,6.71,2.22,2.39-.22,6.3-.43,8.65-.14.61,1.01.81.72,1.17,2.09.24.9.15,1.62.7,2.36.44.59,3.4,2.16,3.95,2.15,1.08-1.7.39-2.44,2.51-3.26,2.43-.95,5.16-.26,7.66-.57,1.16-.14,1.05-.48,2.16-.66,2.23-.37,2.7.79,4.86-.54,1.02-.63,2.54-1.62,4.01-1.81,1.99-.25,6.27,2.24,6.75,4.12.46,1.81-.17,3.2-.14,5.04,3.29,1.44,4.54,5.63,0,6.83.24,2.47.58,1.57,1.43,2.68.83,1.09.06,1.9.61,3.33.9.97-.18-.13.94.61.89.59.19-.43.77.74.31.62.33,1.87.47,2.53,1.87.22,5.37-.5,6.46-.1,3.55,2.16-1.26,5.65-1.59,7.09-.11.5.95,9.46,1.01,9.58,1.17,1.71,3.04-.34,3.8,3.36.35,1.7.82,3.66,1.73,4.87,2,.42,7.41.14,8.85-.71.42-1.62-.62-2.46.89-3.64,1.09-.85,2.47-1.3,4.09-.94,4.78,1.06,4.1.31,7.37-1.91,6.2-4.2,10.74-2,15.37-5.02,5.18-3.37,8.11-.75,13.13-2.39,1.54-.5,1.4-1.46,3.47-.8,2.11.67,2.52,1.26,7.11-2.01,1.13-.8,1.98-1.24,3.12-2.05,1.87-1.34,1.87-.57,3.6-1.27,2.55-3.62-1.53-5.3,1.13-9.51,1.04-1.65,1.93-2.09,3.15-3.24,1.19-1.12,1.27-2.19,3.22-2.88-.05-1.59.34-3.39,0-4.59-.39-1.33-1.11-2.39-.6-4.2.43-1.54,1.82-1.36,3.62-1.26,1.48.08,2.91-.3,4.55-.35.18-2.95-.75-3.42,2.18-3.93.38-3.91.45-2.74,1.85-5.72.94-1.99,2.32-2.53,2.97-4.37.48-1.38-1.14-3.44-2.06-4.87-1.02-1.61-3.7-2.29-2.47-4.21,1.45-.52,2.12.15,3.64-.61.33-.74-.48-4.03-.82-4.65-1.06-.96-1.46-.23-2.74-1.72-.36-.98,1.78-3.84,2.4-4.53,1.38-1.52,3.25-.37,5.12-.93,1.89-1.36-1.11-3.79,6.13-3.86,1.49-.02,1.42.68,2.44.18,2.49-2.52-6.94-5.96-7.21-9.74,1.08-1.15,1.46-.39,1.71-1.82.64-3.65-2.3-4.99,3.28-6.37l.1-4.88c.64-.41,1.89-.98,2.5-1.4,1.85-1.27,4.01-3.97,4.4-6.51-2.67-.98-1.62-1.16-3.28-2.18-2.92-1.8-1.07-.06-2.74-2.66-2.18-.08-3.84,1.2-5.73-.42-1.26-1.08.15-1.08-1.98-1.67-5.35-1.48-2.37,2.58-7.54,2.27-3.94-.23-.99-4.13-4.43-6.44-1.16-.78-1.26-.01-2.21-1.45-.88-1.32-2.14-2.98-3.41-3.62-1.45.79-.05,1.78-3.36,1.7-2.88-.07-1.5-1.27-3.11-1.85-.62-.22-1.31-.14-2.08-.41-.6-.21-.9-.49-1.64-.78-1.08-.41-2.34-.79-3.43-1.15-5.08-1.68-2.62-2.22-5.65-4.08-1.77-1.09-4.77-2.34-7.21-1.61-1.18,1.54-.76,3.91-3.67,2.47-1.62-.8-3.32-.92-5.13-1.86Z"/>
      <path class="cls-1" d="m533.11,348.61c.43.12,1.68,0,2.18-.02.5-.97.24-.85.93-1.65,1.61-.08,2.61,1.03,3.46,1.81.59.54.82.75,1.23,1.5.69,1.23-.01.74,1.08,1.36,3.48,2,3.24,2.9,3.94,6.7,6.14,1,2.25-3.47,8.56-2.13,3.73.79,1.24,1.48,3.44,2.33,1.74.67,4.28-1.25,5.53.83l.59.93c.4.38,1.17.59,1.75,1,2.01,1.44.81.96,3.47,2.28.3,2.49-1.42,4.57-2.49,5.69-1.91,2.01-2.04,2.04-4.43,3.43l-.06,4.91c-5.1,2.33-2.86.68-3.18,5.78-.11,1.76-.82,1.35-1.61,2.4,1.77,2.01,1.95,2.65,4.49,4.27,2.72,1.73,2.99,2.21,2.49,5.78.58.66,3.18,2.36,4.01,2.94l4.16,2.61.68-.92c1.2-1.59,3.02-2.68,4.5-4.02,4.6-4.19,2.9-7.54,2.77-10.65-.2-4.61.74-13.41,1.96-17.81.69-2.48,3.13-6.69,2.71-12.04-.26-3.27-2.75-10.06-2.7-17.03.04-6.61,1.67-11.93,1.1-18.88-.36-4.35-.78-4.72,1.79-7.28,1.37-1.36,3.43-3.57,5.43-4.3,4.03-1.48,3.82.72,6.46-3.28,3.85-5.82,7.34-12.09,10.77-18.18-.72-.56-2.31-1.51-3.24-1.67-1.48-.24-3.11.48-4.06-.75-1.5-1.96,1.54-3.73-2.37-6.46-1.69-1.18-4.74-2.47-2.98-5.87.63-1.22,1.83-1.39,3.67-1.35,5.62.12,2.88-1.79,2.8-5.07-.06-2.28,1.43-1.52,2.53-2.48-.44-1.16-.89-2.22-1.74-2.89-3.74-2.95-4.68-4.49-4.65-9.91-4.53-1.07-2.54-6.28-4.05-8.18-1.27-1.6-2.87-.06-4.8-.68-.65-.21-2.33-2.66-2.79-3.2-3.66-.3-6.07.82-7.75-2.38-.6-1.14-1.46-2-3.19-1.74-1.37.21-1.71,1.46-2.29,2.54-1.47,2.75-3.4,1.99-5.12,4.93-1.92,3.27-2.25,2.45-5.78,3.95-.94,1.77-.88,2.88-2.83,3.86-.32.16-4.86,1.39-5.09,1.37-2.32-.23-.61-3.44-.55-4.94.13-3.01-1.29-1.18-2.25-4.2-.34-1.06-.53-1.35-1.43-1.91-1.8-1.13-3.73-4.12-5.94-2.23-2,1.71-2.81,3.49-4.93,5.12-3.83,2.94-1,3.74-5.9,3.75-2.23,0-6.68,3.28-8.66,4.52-5.37,3.37-7.52-.03-9.46-.97-2.1-1.02-2.36,1.13-4.89-1.47-2.29-2.35-4.51,1.53-5.77,2.41-.7.49-1.27.52-1.94,1.08.71,2.32,2.63,1.39,3.73,2.98,1.58,3.54-1.52,5.75-2.76,7.46-2.59,3.58-2.57,9.12-7.54,7.05-2.32-.97-2.2-.12-3.46.83-1.13.85-2.13.72-3.33,1.84-.99.91-1.31,2.05-2.06,3.01-3.48.31-5.61-1.07-8.22-2.3-1.63-.77-2.09-.64-2.63-2.52-1.1-3.89,1.22-3.97-2.37-7.7-1.4-1.45-2.5-.56-3.59.11.62,1.26,1.55,1.61.76,3.14-.57,1.12-1.29,1.88-2.54,2.35-4.25,1.63-2.74,1.51-4.88,4.56-.72,1.03-1.4,1.4-2.15,2.72-.58,1.01-1,1.94-1.56,3-.88,1.65-3.55,4.49-1.09,6.16,3.33,2.26,3.1,1.31,2.81,6.88-.22,4.2-.15,4.91.96,8.55,1.72,5.63-1.18,7.26-.2,12.07.34,1.66.1,2.67.28,4.34,1.47.89,2.01.25,2.16,2.71l-.05,9.48c-.16,4.4,4.13.69,3.36,10.03-.25,3.06-.09,6.09,0,9.16,5.42-.6,5.75-1.57,9.36-4.02,4.38-2.98,3.23-1.32,7.48-5.61,1.13-1.14,2.41-1.89,3.68-3.02,1.38-1.23,1.54-1.73,3.99-2.41,2.25-.62,9.84-.31,11.29.72.29,1.57-.96,4.15-1.32,6.23,1.01.29,5.11,1.64,5.65,1.67.78-.82.97-2.11,1.67-2.87,1.81-.92,7.77.7,9.85,3.23.73.89,1,1.53,2.2,2.06,2.54,1.12,5.69,2.24,8.49,2.74,1.76.32,1.13,1.45,2.47,1.82Z"/>
      <path class="cls-2" d="m348.74,399.02c-1.54.02-2.78.35-4.08.38-1.48.03-2.22-.52-3.62-.52-1.52,0-1.87.5-3.35-.33-.14-.08-2.33-1.39-2.47-1.51-2.88-2.43,3.6-4.05,3.64-7.9.01-1.3,0-2.68,0-3.99-3.43.13-4.51,4.44-6.59,5.87-1.06.73-3.94,1.21-5.11.4-1.14-.79-.91-2.94-3.61-2.13-1.13.34-2.45,1.74-3.96,2.45-5.34,2.49-4.95.11-9.01-1.08-2.87-.84-2.06-.51-3.75-2.34-1.51-1.63-2.5-.9-4.78-1.6-6.15-1.88-1.28-2.95-8.75.02-2.45.98-3.03.36-5.19.89-1.44.35-2.12,2.14-3.02,3.38-3.15,4.36-3.14,5.04-6.78,5.4-3.72.37-1.99-.19-4.51,1.52.56,1.14,2.46,2.19,2.24,3.88-.16,1.2-.73.99-1.1,2.18-.28.88-.07,1.77-.33,2.7-.43,1.56-1.95,2-2.06,4.33-.09,2.01.39,3.95-.12,6.02-2.64,2.14-2.08,1.2-3.42,5.07-1.18,3.43-.14,3.53-3.32,4.89.86,3.5,2.33,2.53,4.7,4.06.05,1.29-.86,2.52-1.58,3.32-1.07,1.19-1.86.94-3.71.83.73,2.47.9.3,2.04,5.89.48,2.38,1.91,2.98,2.87,4.41,1.26,1.88.98,3.89.85,6.32-.05.93.05,2.91-.08,3.62-.29,1.55-.94,1.02-1.73,2.07-.75,4.27-.41,7.74,1.1,11.25,1.7-.02,2.77-.72,4.38-.11,1.95.75,1.37,1.04,3.8.9,1.67-.09,3.76-.51,5.32.04,1.31.46,1.52,1.7,3.76,1.37,2.9-.43,3.24-5.53,6.31-3.55,2.04,1.31,2.3,4.15,6.64,3.35,3.09-.57,4.75,2.44,5.61,4.81.96,2.64,1.46,1.15,2.05,3.11.61,2.04-.27,2.59-.06,4.61.65,6.21,2.07.26,2.72,8.06.4,4.76-1.04,4.59.97,9.26,7.39.27,8.05-4.44,15.2-1.48,1.98.82,2.67,2.37,3.65,2.23,2.07-1.04,1.16-3.62,1.85-5.57,2.59-7.35,5.72-5.24,7.19-8.05,1.16-2.21-.41-4.4,1.67-5.93,4.42-3.23,4.18-2.05,8.76-6.45,4.45-4.28,2.99-2.81,6.83-4.75,6.61-3.34,5.81-6.36,8.49-10.37.75-1.12.86-1.46,1.82-2.14,2.85-2.04.8-4.21,3.62-7.64,1.53-1.86,2.9-1.44,3.01-4.75.22-6.51,8.46-8.96,9.23-9.77.42-.44,1.05-1.83,1.25-2.41-.79-2.21-2.44-1.64-.76-5.33.78-1.71,2.43-3.87,2.59-5.02-.94-.91-2.76-2.08-3.99-2.69-1.6-.8-2.15-2.13-3.98-2.37-2.18-.28-3.88.41-5.84-.9-2.69-1.8-.67-1.5-4.7-1.75-2.93-.18-3.03-1.08-4.65-2-2.4-1.36-2.49-1.85-4.52-1.92-8.23-.26-5.03-4.56-4.65-6.09-2.39-2.52-1.44-.54-3.66-1.66-1.52-1.1-1.12-2.46-1.34-4.82Z"/>
      <path class="cls-1" d="m414.68,309.31c-3.6,2.37-3.17,4.69-3.21,6.53-.04,1.59-1.49,2.06-2.7,1.3-1.02-.64-1.26-1.51-2.31-2.58-1.91-1.94-1.7-.62-3.65-1.53-1.34-.62-.66-1.33-3.14-1.66-4.46-.6-4.01-1.81-4.08-5.98-1.74.66-1.21.46-2.09,1.68-1.97,2.74-1.13-.64-2.14,4.84-.23,1.27-.43,1.52-.77,2.59-.64,2.01-.32,3.67-1.34,5.67-.53,1.05-.78,1.35-1.5,2.15-3.09,3.47-.35,5.11-1.5,8.84-.75,2.43-1.55,1.83-1.56,5.6-.02,7.1-1.26,4.97-1.92,8.24-.25,1.2-.47,1.54-1,2.34-2.29.45-4.93-.7-6.42.63-1.59,1.43-.59,2.13-3.33,3.56.28,4.6,1.86,3.41-1.47,6.85-2.07,2.13-1.48,3.45-5.26,3.85-5.18.55-1.45,1.54-5.32,3.83-1.63.96-4.31,2.58-4.93,4.18.72,1.38,2.32,1.33,1.23,4.3-.63,1.73-1.61,1.75-3.16,2.63-3.04,1.72-3.73,2.94-4.49,7.04-.37,1.99-.31,3.21-1.1,5.03-.9,2.07-.4,2.83.42,4.51,2.93,5.99,1.06,7.61,2.61,8.93,1.06.9,2.77.18,3.84,2,1.22,2.07-3.69,5.87,3.66,5.9,4.16.02,4.97,2.71,7.85,3.58,1.84.55,3.55-.02,4.8.67,1.14.62,2.04,1.82,3.61,2.15,2.05.45,3.28-.27,5.23.57l6.83,4.37c.89-1.21.98-3.04,2.24-4.08,1.38-1.14,2.53-.92,3.55-2.54,2.06-3.29,1.38-5.04,5.85-6.33,3.02-.87,7.45-1.68,10.64-1.27,2.28.29,3.03-.95,4.19-1.85,1.39-1.07,2.04-1.69,4.26-1.75,5.93-.16,12.99-1.62,16.57.72,2.04,1.34,2.26.68,4.1-.53,2.19-1.44,5.58-3.11,7.01-5.5,1.08-1.8-.56-1.81.25-4.59.49-1.69,1.47-2.29,1.45-4.35-1.12-.83-2.48-1.07-3.78-1.62.35-4.41,5.15-6.86,5.53-7.87.84-2.25-1.56-2.49-2.09-4.14-.49-1.53,0-1.26-1.03-2.32-3.83-3.94-.26-1.86-.4-9.65-2.88-.53-4.22.48-6.91.49-1.67,0-13.83-.15-9.17-4.27,2.99-2.65.81-2.51,1.2-5.27,2.45-.95,11.59-.74,14.45.03.79,3.55.42,7.43,1.6,7.43.4,0-.24.05.38-.05l3.64-.28c2.02-.53-1.19-.39,4.25-.97.2-3.47-2.52-2.68-1.9-6.81.21-1.39.66-2.37.72-3.79.07-1.83-.35-2.79.9-3.77,2.45-.78,2.22,2.26,3.59,1.23.96-.87-.02-2.07.91-3.98.5-1.04,1.49-1.8,2.88-1.13,1.69.81.96,2.78,5.96-.35.39-12.53.12-8.22-2.61-11.18-1.36-1.47-.43-10.41-.72-13.1-1.24-1.36-2.14-.32-2.14-3.33,0-1.86-.04-2.66-.65-4.41-2.08-.27-8.33,2.34-10.15,3.23-1.51.75-3.2,1.55-4.78,2.23-3.11,1.34-3.11-.08-4.71-1.13-.82,1.67-.51,3.05-1.85,4.25-2.17.28-2.05-.83-3.09-1.98-1.35-1.48-2.16-.09-4.19-.28-2.05-.2-1.51-1.38-3.77-.53-1.36.52-2.15.97-3.7.31-1.37-.58-3.67-3.97-4.58-5.47-.43-.71-.51-1.29-1.41-1.44-1.46-.25-.65.08-1.64.79-1.49,1.06-1.82-.62-2.56-1.43Z"/>
      <path class="cls-1" d="m500.58,132.31c-1.99.63-2.62-.79-3.47-1.22-1.3-.67-2.63.18-4.38-.49-.33-1.39.24-2.71.21-4.24-2.52-1.58-.84-1.35-2.31-3.7-1.21-1.93-.79-2.08-2.52-3.26-1.84-1.26-1.81-.33-3.32-2.46-.83-1.17-1.79-2.25-3.55-2.42-.64,1.46-1.77,4.38-4.2,3.21-1.93-1.23-1.51-5.08-4.64-6.06-1.6-.5-3.1-.02-4.54-.93-1.12-.71-1.54-1.94-2.78-2.07-.35,2.12-.48,2.77-1.16,4.63-1.1,3.04-.08,2.76-.39,4.87-.17,1.14-.58.8-.67,2.22-.07,1.16.19,1.35-.13,2.65-1.33,5.51-2.92,2.74-3.51,5.01-.22.84-.05,1.87-.09,2.68-.18,3.81-3.51,1.43-4.22,4.62-.84,3.75,2.35,6-2.47,10.9-3.58,3.65-1.63,5.36-3.57,7.99-1.27,1.72-1.43,1.13-3.08,2.4-1.81,1.39-2.52,5.47-3.74,7.83-.92,1.77-1.6,1.85-2.98,2.82-2.19,1.54-1.61.22-4.07.26-5.01,6.41-3.35,4.39-7.22,6.39-.13,1.25.67,3.96,1.71,4.37.33.13,3.99.1,5.15.34,2.18.45.77,1.36,4.12,1.98,5.68,1.06,2.78,4.75,3.43,7.8.42,1.97,1.48,2.88,1.82,4.27.35,1.43-.58,3.28-.66,4.99-.17,4.07.02,1.76-1.68,4.26.21,2.8.97,3.51-.24,6.33-1.07,2.49-3.22,1.01-3.67,3.81,2.88.82,2.59-.09,3.57,2.79.61,1.79,1.43,2.74,2.53,3.58,2.67,2.03,2.85,4.77,4.94,7.21,2.87-.43,2.79-1.95,5.3-2.9,2.27-.86,4.64,0,5.04,2.06.41,2.15-1.59,4.4-2.49,5.67-1.32,1.88-3.95,1.36-4.77,3.15-1.02,2.21.76,4.22-1.25,6.97-2.09,2.86.07,3.07,1.74,4.33,1.79,1.36.3,2.9,3.3,4.62,2.93,1.68,2.29,2.41.97,5.04,1.05,1.53,1.92,1.56,2.68,2.57.75.99.84,2.66,1.55,3.63,1.23,1.66,6.61,1.74,8.26,1.67-.02-1.7.24-3.74,0-5.36-.31-2.13-.78-2.2-.4-4.77.76-5.27-1.55-4.12-2.25-8.09-.41-2.29-1.63-2.21-1.54-3.92.08-1.68,1.16-2.22,2.4-2.79,2.79-1.29,2.97-3.31,4.28-6.38,1.31-3.09,2.7-5.59,2.82-8.2.11-2.57.07-2.29,1.4-4.02,2.96-3.85,3.3.4,7.52-3.13,1.06-.89,2.27-.61,3.7-1.47,1.47-.87,2.01-1.09,3.12-2.36,1.19-1.36,1.45-1.18,2.78-2.39,4.76-4.35,1.99-5.21,4.91-6.08,2.17-.65,7.68-.56,9.88.07,1.72.49,1.73,2.07,3.42.82,3.77-2.79,5.86.16,6.58-4.06,1.22-7.1-.33-4.62-2.24-7.57-.74-1.14-.68-8.31-.29-9.31,1.11-2.83,3.28-1.11,3.26-7.37,0-2.4-.25-2.59-1.31-3.84-2.58-3.02.42-4.28,1.23-7.11-.62-.83-1.22-.82-1.94-1.54-.36-3.55-.37-4.36,1.58-6.24,1.53-1.48,1.79-2.8,2.62-4.99,3.02-8.01,4.23-4.94,8.58-6,.28-.89.29-2.59.84-3.44,1.11-1.7,1.6.4,5.14-3.39.98-1.05.77-1.46.87-3.29-6.21-1.97-4.3-.84-8.75-.96-6.51-.18-7.11-3.6-14.08-6.3-1.81-.7-2.97-.13-4.65-.56-1.55-.4-1.61-1.39-3.14-1.54-1.7,1.09-2.15,4.58-4.86,5.44Z"/>
      <path class="cls-2" d="m401.35,591.56c.04-1.53.72-1.71,1.21-3.03.46-1.23.31-2.33.59-3.66.71-3.31,3.26-1.71,3.02-5.28-4.09-1.62-9.13-1.52-13.79-2.59-2.82-.65-2.84-2.19-4.32-3.89l-4-3.91c-1.79-1.77-.89-.75-2.37-1.89-1.33-1.03-6.06-4.76-7.09-5.07-3.06-.93-4.41.97-6.33-1.91-2.26-3.39-5.73-2.53-10.5-2.37-8.28.28.91-3.33-17.97-1.55-1.28.12-4.48,1.59-5.45,2.28l-4.45,3.46c-4.09,2.41-3.96-1.17-10.67,4.86-2.53,2.27-6.99,4.73-8.95,6.27-5.61,4.39-.59,3.05-5.91,5.65-5.46,2.66-6.95,9.07-8.96,10.53-3.38,2.47-1.35-.68-3.89,3.72-6.24,10.8-13.33,10.13-14.52,16.32,3.83-.81,4.95-3.41,7.8-3.86,5.22-.83,8.94,5.51,10.4,6.74l4.73,4.11c2.78,2.91,2.28,1.48,2.87,5.34,3.99,1.13,3.77-4.6,7.06-2.51,5.52,3.5,3.54,6.48,8.59,7.23,2.6.38,1.81,1.29,3.42,1.78,3.5,1.09,4.68-.94,6.87,3.46.83,1.66.8,2.14,2.25,3.23,1.06.8,1.93,1.36,3.59,1.61,3.02.46,3.62,2.99,5.68,4.64,1.03.82,2.46,1.32,2.88,2.57.76,2.22-.21,2.26,1.78,3.42,2.06,1.2,5.15,2.19,6.63,3.64-.07,2.18-1.39,2.83-2.85,3.75-1.15.73-.85.68-1.7,1.65-.89,1.01-.84.54-1.78,1.27-2.13,1.65-1.12,8.58.03,10.61,2.46-.27,6.38-4.44,7.62-5.1,4.61-2.44,6.26-7.55,7.78-13.23.63-2.34,1.71-3.9,2.92-5.59,1.6-2.25,15.27-12.61,18.57-14.91,1.55-1.08,3.44-2.74,4.41-4.11,3.11-4.41,5.87-7.01,7.48-9.25,2.68-3.73,3.24-7.33,5.24-11.51l5.56-11.06c-1.27-.93-2.45-.81-3.53-1.85Z"/>
      <path class="cls-2" d="m451.22,226c-4.88,2.44-3.57-2.32-7.16-5.96-1.21-1.23-1.67-1.25-2.69-2.79-1.14-1.72-1.3-3.29-1.64-3.57-1.36-.5-3.69-.61-2.91-2.67.61-1.61,2.46-1.47,3.38-2.71,1.02-1.36,1.02-3.19.64-4.82-.66-2.84.26-2.33,1.47-3.63-.03-2.29.02-2.94.52-5.07.54-2.3-.27-2.62-1-4.17-1.61-3.44.34-6.71-1.27-8.15-1.31-1.17-2.78-.64-4.18-1.32-1.81-.88-.29-1.43-3.81-1.71-5.09-.4-4.37.43-5.94-4.63-.83.48-.74.56-1.54,1.65-1.07,1.44-2.56,2.37-3.78,3.53-.05.05-.12.12-.17.17l-.49.58c2.52.19,2.51-.52,4.1-.64,1.61-.12,2.2.8,3.11,1.36,1.07.65,2.36.7,2.09,2.5-.16,1.11-1.24,1.42-1.51,3.14-.23,1.48.26,2.77.29,4.21.05,2.41-.56,2.1-1.26,3.37-.63,1.15-.52,2.2-1.44,3.11-.94.92-1.83.79-2.92,1.37-1.23,2.19.38,4.16-2.87,5.02-2.35.62-4.11.33-6.37,1.55-2.4,1.3-1.2,3.49-.86,5.49.53,3.08-1.54,3.83-2.35,5.05,0,1.61,1.32,5.06,2.13,5.83,1.64,1.57,2.61,3.48.84,5.61-2.19,2.63.65,3.02-3.35,6.69-1.09,1-2.46,1.77-2.99,2.79-1.48,2.87.46,2.2-2.74,5.17-2.02,1.87-2.55,3.99-5.32,6.56-3.18,2.95.25,5.04-2.57,9.3-5.53,8.38-.55,6.73-4.82,11.02-1.19,1.2-2.54,3.37-2.09,5.7.64,3.29,1.16,3.62-.11,6.72-3.1,7.64.07,8.91.32,12.58.22,3.21-1.18,2.92.1,6.58.71,2.03.08,4.88,1.16,6.74,1.99-.82,2.15-3.05,4.81-3.53,1.12,2.03-.18,4.05.96,5.38,1.08,1.26,3.59.57,5,1.7,1.25,1,.3.9,2.35,1.22,3.91.6,3.43,4.08,6.04,4.08.19-4.49-.39-3.67,2.61-7.16.55-.64.91-.93,2.08-1.15l1.42,1.88c.81-.51.47-.71,1.4-1.02,3.51-1.2,4.77,6.88,8.05,7.18,1.63.15,2.25-.85,3.68-.9,1.75-.06,1.44,1.04,3.55.84,1.55-.15,2.35-1.04,3.75.29,1.22,1.15.49,1.6,2.16,2.1,1.34-1.35.64-3.08,1.82-4.71,2.61.05,1.16,2.98,4.7,1.64,3.32-1.26,11.13-5.87,15.61-5.69.47-2.64,1.46-3.81,1.1-6.93-.26-2.17-1.66-4.37-1.64-6.45.01-2.44.35-5.62.21-7.94-.17-2.83-3.11-1.88-3.77-4.38-.61-2.33,1.25-4.36,2.1-5.84,1.29-2.22,1.68-3.37,3.13-5.09,1.56-1.86.74-1.2,1.65-2.6,2.68-4.12,5.35-1.54,6.46-5.5-.88-1.2-.77-1.27-2.51-1.49-3.27-.43-7.17.23-8.35-2.66-2.22-5.44-.33-1.71-3.11-4.5-2.42-2.43.5-2.5.02-4.83-1.19-1.65-3.07-1-3.89-3.75-.54-1.81-.15-1.5-1.43-2.25-4.98-2.91-1.08-5.05-.71-6.78.45-2.09-.63-4.64,1.03-6.28.61-.61,1.41-.97,2.35-1.31,1.62-.59,1.25-.3,2.12-1.53.76-1.08,2.76-3.04,1.99-4.86-1.58-3.72-6.66,1.25-6.76,1.3Z"/>
      <path class="cls-1" d="m443.3,432.03c-3.2-2.07-4.65.43-7.18,1.38-2.03.76-2.86-.32-5,.46-1.96.71-2.75.33-4.88.33-6.84.02-4.19,1.91-6.38,3.86-.91.42-3.87-1.36-4.67-1.95-1.46-1.08-.92-2.9-2.08-4.6-2.46-.44-6.06.02-8.5.16-4.03.23-5.36-1.92-6.22-2.18-.59-.18-6.98-.27-7.58-.02-2.35.95-.36,2.27-5.99,2.57.75,1.74.12,2.55-.63,3.9-1.03,1.87-1.15,1.02-2.88,1.99-9.62,5.36-4.64,9.17-8.22,11.87-3.03,2.28-2.39,2.39-3.42,6.34-.82,3.14-1.83,1.54-4.19,5.82-1.47,2.68-1.59,4.62-3.67,6.38-5.01,4.24-8.18,3.78-11.41,8.44,2.11.32,4.11.7,6.35.51,1.77-.15,5.1.21,6.13,0,1.89-.38,2.15-2.61,4.36-2.07,2.13.52,2.48,1.79,4.84,1.84,2.09.05,4.44-.92,6.19-.39,1.95.6,2.05,1.32,4.7,2.01,9.18,2.38,3.57,4.2,8.67,5.04,5.06.83,8.47-1.76,11.91,1.16,2.84,2.41,2.81,1.45,3.78,3.22,3.84,7.03.79,6.57,1.19,11.22.3,3.56,1.17,2.29,2.76,4.01,6.19,6.71,1.24,5.78,1.34,8.74,2.93,1.16,6.86.32,10.23.73,5.38.64.98,4.51,2.72,6.67,1.25.4,2.77-1.62,4.3-.64.75.48.69,1.13,1.22,1.83.4.53,1.1,1.01,1.56,1.44,5.85-3.94,2.36-5.37,8.92-9.31,9.75-5.85,3.66-2.23,10.38-7.58,1.89-1.5,2.33-2.68,5.09-4.04,1.79-.88,6.32-1.67,7-2.13,1.11-.75.89-1.81,2.02-2.55.97-.63,2.47-.59,3.64-.92,4.75-1.37,3.4,1.17,6.56,1.31,2.33-3.38.86-2.51,4.67-4.99,2.25-1.47,4.01-2.09,5.02-4.42,1.23-2.83.06-5.1,3.56-6.18,3.81-1.17,3.27-1.24,7.58-1.18.54-2.81-.24-3.48-1.75-4.52-1.02.69-1.1,1.74-2.23,1.95-.77.14-2.33-.68-2.77-1.24-1.09-1.39,0-1.59-1.98-2.27-4.37-1.51-4.57,3.12-9.15,3.2-3.92.07-1.66-1.8-6.44.35-.05,2.77.78,3.8-2.39,4.08-1.77.16-4.14.55-5.78.54-5.19-.05-3.32-6.14-5.24-7.47-1.87-1.29-3.19.28-3.27-3.09-.05-2.2-.29-3.69-.65-5.8-1.11-6.46,3.8-4.91,2.36-8.75-1.8-.55-3.75.35-5.65.15-2.73-.28-1.07-2.08-2.38-3.36-.78-.77-1.07-.09-1.59-1.45-.31-.81-.06-1.59-.26-2.38-.41-1.64-1.96-1.25-1.62-4.41l2.46-1.11c1.01-3.07-1.37-3.57-2.49-4.86-.31-1.92.67-3.7-.03-5.37-.33-.77-2.25-1.8-2.95-2.25Z"/>
      <path class="cls-1" d="m559.75,204.76c-1.78-1.71-1.41-1.01-3.87-1.88-4.65-1.64-1.16-5.06-3.05-8.5-1.2-2.19-.97-1.73-1.07-4.61-.08-2.34-.57-3.04-.94-4.94-.64-3.31,1.79-7.71-1.61-9.36-5.03-2.43-3.67-4.53-3.77-6.92-.37-8.26,2.37-3.8,1.7-9.53-.28-2.43-1.57-1.53-2.17-3.64-.48-1.67-.42-3.53-.79-5.04-.39-1.56-1.52-1.96-1.59-4.13-.02-.59.89-4.27,1.07-4.61.89-1.6,1.54-.71,2-3.67-4.68.15-4.64-.17-8.53-1.32-.6,3.55-.08,2.19-2.04,4.32-.74.81-.48,1.09-1.76,1.59-.89.34-1.57.3-2.33.7-.68,1.52-.12,3.3-1.7,4.1-1.31.67-3.68.27-5.15.33-.5,1.17-1.31,2.14-2.01,3.76-.55,1.27-.95,2.63-1.55,3.92-2.07,4.48-3.85,2.14-3.15,7.78,1.23.92,2.44,1,1.73,2.95-.5,1.39-1.37,2.24-1.96,3.31.03,3.33,2.28,1.66,2.27,6.69,0,3.91-.35,4.48-2.31,6.3-1.97,1.82-1.12,4.59-1.21,7.72-.09,3.28,2.51,3.04,3.13,5.49.51,2.01-.33,6.25-1.43,7.36-2.17,2.19-2.45-.28-6.14,2.4-2.85,2.07-2.62-3.24-14.14-.7-.62,1.29-.29,1.61-1.3,2.9-2.52,3.24-1.87,2.09-4.37,4.15-1.26,1.04-.39,1.6-4.46,3.75-1.17.62-2.28.46-3.17,1.1-.93.67-1.07,1.26-2.66,1.57-2.25.44-5.67-1.2-6.05,5.44-.17,2.93-1.07,3.54-2,5.71-2.15,4.99-1.89,7.52-5.68,9.23-3.39,1.54-1.2,2.39-.49,4.39.45,1.26.12,1.64.79,2.85.55.99,1.1,1.25,1.5,2.14,1.12,2.48-.2,4.58.14,6.89.19,1.3.53,1.72.58,3.16.03.97-.23,2.6.14,3.47,1.47.22,3.18-1.57,5.07,1.57.69,1.14,1.45,1.51,1.69,2.33.31,1.07-.1,2.23.04,3.59.25,2.55,1.62,3.03,3.73,3.84,2.15.83,3.2,1.96,5.86,1.55,3.39-5.74,4.25-2.78,6.68-5.97,5.63-.25,4.31,3.81,7.9-3.8.68-1.44,1.72-3.04,2.73-3.96,1.37-1.26,1.94-2.24,1.54-4.94-1.84-1.14-4.24-1.24-3.78-4.06.99-.9,1.21-.56,2.2-1.38.63-.53,3.76-4.51,6.51-2.84,1.21.73.51,1.21,1.73,1.58.97.29,1.87-.19,2.83-.03,1.28.22.81.68,1.92,1.41,6.29,4.13,11.17-4.67,16.09-4.72,3.84-.04,1.78-.04,3.92-2.28,1.05-1.1,2.99-2.18,3.87-3.13.38-.42.97-1.44,1.38-1.96,1.17-1.5,1.99-1.07,5.09-4.95,2.78-3.48,2.24-1.89,4.03-2.68,1.17-.51,2.23-2.3,3.34-3.34,1.24-1.16,2.68-1.69,2.67-3.98,0-1.75-1.26-3.01-1.75-4.9-.99-3.84,1.08-2.71,1.79-4.26.4-.82.09-1.53.26-2.7.17-1.2,2.07-3.25,2.06-6.63Z"/>
      <path class="cls-2" d="m206.24,274.64c1.38-1.25,1.67-.32,2.01-3.09.36-2.83-.36-2.18-1.36-3.67-.86-1.29-.22-2.91-.13-4.52.09-1.53-.27-3.21-.31-4.81-.05-1.71.28-3.51.17-5.19-.16-2.37-1.07-2.48-1.49-3.82-.41-1.31.76-2.26,1.05-3.81.24-1.29.04-3.45.09-4.93-1.52-.18-2.04-1.06-3.14-.54-.22.1-3.44,3.43-5.56.74-2.58-3.27-3.63-2.76-5.17-6.69-1.1-2.81-.95-1.14-4.53-3.38-1.91-1.19-.9-3.52-4.48-3.84-2.84-.25-4.67.29-7.7-.13-1.13-.16-2.53-.11-3.3.55-.36.31-1.49,2-1.64,2.34-.46,1.08-.22,2.24-1.09,2.87-1.22.89-2.03.12-3.55.4-.42,1.73.35,3.32.11,4.7-.23,1.34-1.3,1.34-2.06,2.78-2.4,4.59-2.34,3.6-5.5,4.24-2.04.41-1.53.94-4.15.54-.72-.11-1.44-.29-2.22-.21-1.71.16-1.14.31-1.24,1.21-.39,3.71-2.81,5.79-4.22,5.4-.6-.42-1.64-1.96-2.05-2.67-1.54.56-1.81,1.48-4.12,2.37-1.81.7-2.06,2.31-3.89,2.48-4.08.38-1.76-2.08-11.25-1.45-2.15,3.38,2.44.73-5.36,5.38,2.08,1.25,3.35,1.85,5.56.88,2.65-1.16,3.06-1.58,6.5-1.45,2.33.09,5.76.42,7.13-.74,1.46-1.25,4.09-2.04,5.06.15.48,1.07-.02,2.3-.12,3.38-.3,3.54,2.73,3.31.39,5.75-2.05,2.14-.78,2.98-.53,6.72.34,4.92,2.32,2.38,1.59,6.4-.26,1.41-.98,1.47-1.91,2.09.7,9.84,2.46,7.77,5.24,10.86.86.96.68,2.46,1.48,3.67,1.63.46,2.32-.29,3.48.8,2.21,2.07.61,1,4.24,3.98,3.15,2.59-3.76,3.56,12.29,3.15,5.9-.15,4.68,1.82,8.22,3.45.84-.82.5-.91,1.52-1.74,2.35.22,2.63,2.4,3.86,3.97,2.18,2.79,6.56,4.9,10.44,5.14,4.74.3,2.92-.39,4.66,2.89.36.69,3.46,3.01,4.44,3.49,2.03.99,4.65.61,6.75.25,10.74-1.88,5.13,2.61,11.86,2.54.85-.9.46-1.12,1.56-1.62.7-.32,1.49-.41,2.01-.67-.69-6.55.12-3.71,1.96-6.29.46-.65.57-1.29,1.16-1.88,1.38-1.41,2.57-.35,2.92-3.13.22-1.79-.99-3.6.45-5.07,1.5-1.54,2.95-.23,3.34-3.07.41-2.96-1.06-2.47-1.8-4.25-1.04-2.5.2-2.33-2.31-3.78-1.67-.96-2.83-.99-2.56-3.47.44-4.17,6.43-3.29,4.45-7.21-.73-1.45-2.76-.92-4.43-1.67-1.55-.69-2.27-1.24-4.42-1.67-1.63-.33-10.04-.4-11.97-.28-1.65.1-3.85,1-5.24.14-1.03-.64-1.34-3.8-1.18-4.9Z"/>
      <path class="cls-2" d="m235.05,13.58c-2.03-.67-7.88-.45-5.99-4.26.79-1.58.48-.76-.04-2.51-.55-1.86.29-5.37-.92-6.4-1.08-.92-4.84-.08-6.04.4-.26,1.3.44,5.19-2.44,6.68-3.4,1.76-2.51-.12-3.71,3.27-.83,2.35-2.04,1.23-4.34,1.78-4.72,1.13-8.88,5.97-13.07,6.71-3.78.67-6.02-.75-6.94-.98-4.81,3.14-2.1.77-6.13,2.21-.18,2.97,1.59,1.42,1.22,4.65-1.66,1.28-1.6.35-3.12,1.08-.68,1.12-.48,1.82-1.81,2.09-1.02.2-2.29-.14-2.75-.64-.13-.14-2.13-5.1-2.19-5.4-2.63.53-4.05,4.11-6.1-.2-1.79-.04-2.91-.45-4.11.56-.89.75-.93,1.47-2.59,1.42-.98-1.03-1.16-3.04-2.94-3.35-.78-.14-4.69.04-5.29.22-.19,1.42,1.09,2.66,2.12,2.91,2.28.56-.05-.92,3.21,1.62,2.81,2.19,1.25,3.96.98,7.87-.3,4.2,1.71,4.23,2.65,7.37.65,2.18,2,5.11,3.06,6.58,2.85.44,4.52-.61,7.16.02.69,1.41.35,2.75.81,4.12l3.12.04c1.98,1.51.15,1.77,4.14,2.37,1.49.22,1.4.19,2.34.94,1.48,1.2,2.35.89,1.41,5.02-.3,1.31-.93,1.48-1.49,2.45,1.15,1.54,1.91.74,3,2.7.79,1.41,1,2.77.87,4.72,1.51.95,1.88,1.11,1.6,3.56-.13,1.14,0,2.12-.11,3.02-.14,1.26-.44.86-.8,1.97-.57,1.74.47,3.29.79,4.8.32,1.49.2,3.53.81,4.66,1.15,2.14,4.04,4,3.11,7.96-.44,1.89-.51,3.01-1.83,3.98-1.38,1.01-1.94,1.33-1.8,3.85,1.7.65,2.83,1.07,4.11,2.23,5.03,4.54,4.06,6.47,5.42,7.36.52.34,4.03.66,5.04.81,1.4-1.49.8-2.69.54-4.88-.15-1.19.08-1.58.07-2.62,0-.45-2.6-8.05,5.65-8.69,1.44-.11,4.08.59,4.8,1.41.92,1.05.93,2.94,2.19,3.9,1.92,1.48,2.95.33,4.39-.4,1.97-.99,2.27-.4,4.04-1.99-.16-3.45-4.31-4.09-1.03-8.08,1.42-1.72,1.41-.85,2.02-3.75.22-1.04.24-1.23.87-1.88,3.37-3.46.9-2.48,5.48-2.39,1.78.03,3.71-.11,5.5-.17,1.96-.06,3.29-.21,5.15-.48,1.67-.24,4.46-.16,4.73-.91l-.12-15.91c-4.66-2-4.09,1.62-8.68-4.05-3.13-3.87-1.93-.76-4.39-3.52-1-1.12-1.89-1.72-1.08-3.4,1.88-3.88-2.25-5.76-2.78-7.06-.64-1.54-.22-2.29-1.23-3.95-1.06-1.75-.89-2.16-.17-4.16.91-2.52.53-1.7.47-4.29-.05-1.87.85-2.67,1.37-3.91.52-1.25.14-3.07.08-4.56-.16-4.14,3.56-3.58,4.13-6.5.41-2.1-1.24-2.28-1.86-3.45-.52-.99-.19-3.15-.56-4.61Z"/>
      <path class="cls-2" d="m424.39,514.53c-2.45-2.11-12.93,1.04-12.85-3.04.04-2.06,4.55-2.47-1.11-7.62-.64-.58-4.32-1.63-2.61-8.06.73-2.77.38-3.68-.7-5.97-1.64-3.47-1.93-1.78-3.99-3.92-1.73-1.81-2.71-1.65-5.7-1.17-2.12.35-5.2.23-7.15-.28-2.6-.69-1.57-2.36-3.95-3.66-1.81-.99-4.37-1.01-6.06-1.85-.82-.41-1.32-1.13-2.57-1.39-3.1-.64-3.31,2.22-9.47-.88-3.08-1.55-2.55,1.08-5.01,1.58-1.35.27-2.43-.05-3.68-.13-1.38-.09-2.27.17-3.57.2-2.63.05-5.09-.74-7.09-.68-1.29,1.59-4.47,3.33-6.36,4.57-3.17,2.09.23,5.1-3.45,7.51-1.09.71-2.42,1.34-3.39,2.08-2.06,1.56-2.72,7.39-2.91,8.06-.75,2.67-.9,1.72-2.68,2.78-.42,3.97,2.19,3.37.46,5.92-1.65,2.44-.06,3.65-1.49,6.13-.46.79-1.24,1.38-1.44,2.56-.17,1.06.03,2.56.03,3.66,0,3.05-1.34,3.53-1.75,5.77,1.64-.05,1.8-.87,3.16-.54.83.2,1.3.99,2.59,1.11,2.39.23,3.86-.92,5.67,1.02,1.83,1.95-.37,3.79,1.38,6.24,1.44,2.02,1.15,3.41,2.04,5.34,1.37-.11,4.19-.56,5.37-.27,2.19.53,1.73,1.97,3.48,2.3,1.41.26,3.94-.1,5.46-.14,7.6-.23,7.55,1.37,9.76,1.64,2.06.26,3.35-.26,4.83.98,1.03.86.22.85,2.13,1,2.33.19,6.63.76,7.69.28.49-2.26-1.5-3.86,2.29-5.34,2.04-.8,5.75-.02,7.12-.8,1.12-.64,1.22-3.27,4.01-3.91,2.4-.55,4.72.13,7.2-.12,8.64-.88,4.99,5.17,11.16,2.06,2.17-1.1,2.27-2.51,5.59-2.43,2.56.06,4.72-.28,7.31-.46,1.42-2.09,2.04-4.19,3.25-6.53,1.37-2.65,3.32-2.52,4.37-5.12-.99-1.29-1.43-1.74-2.44-3.32-2.35.02-1.97,1.1-3.96.93-3-2.22-.11-3.86-.94-6.08Z"/>
      <path class="cls-2" d="m99.97,250.63c-2.51-1.01-4.49-2.15-6.69-3.35-2.28-1.24-5.2-1.73-7.44-2.91-1.84-.97-4.86-2.42-6.56-3.48-13.63-8.54-10.91-5.46-20.33-10.11-3.2-1.58-4.8-1.09-8.22-1.81l-16.3-4.11c-2.81-.8-5.63-1.21-8.39-1.96-2.98-.82-4.67-1.64-7.43-2.61-2.27-.8-5.41-1.69-7.29-2.76-2.21-1.27-3.14-2.93-6.94-3.02-1.02,1.67-.39,1.7-1.86,3.24-1.68,1.76-1.87,1.31-2.53,2.47,2.68,3.33,2.62,1.91,3.78,3.36.58.72.64,7.18,3.52,9.56,1.79,1.48,1.24.36,3.6,3.09.62.72,1.01,1.24,1.71,1.95.84.86,1.06.89,1.74,1.61.42.46,1.12,1.28,1.46,1.88,2.89,5.09,3.39,3.59,1.21,6.06-.57.64-2.44,2.89-2.38,3.94,1.66.27,4.23.55,5.89.66,1.78.12,4.72-.46,6.24.02,1.89.6,1.54,2.5,2.08,4.27l1.73,4.64c2.94.41,5.76.07,8.83.04,4.97-.04,3.8-.66,6.9-2.56,2.38-1.45.02-1.78,3.85-3.42,1.15-.49.42-.1,1.26-.9,1.57-1.5,3.49-3.45,6.15-1.58-.01,2.39-2.12,1.15-1.81,5.71.17,2.45.64,4.44.94,6.72.28,2.17.21,5.19.57,7.07.3,1.55.67,1.74.13,3.27-.35.99-.97,1.81-.19,2.58,1.17.92,5.31.56,6.9.19,3.22-.75,1.27-2.33,13.03-1.72,3.97.2,3.28-.23,5.05,2.27,1.08.03,3.1-.21,4,.06,1.1.33.74.91,2.3,1.41,4.6-3.47,4.94-.73,6.31-2.44.73-2.04.27-2.29,1.86-3.86,1.44-1.43,2.17-.97,4.44-1.09,2.76-.15,2.44-.55,3.92-1.82,1.14-.98,1.78-1.56,2.85-2.63,4.1-4.12,2.9.27,7.32-3.94,1.23-1.17,1.63-1.79,2.74-3.03,1.09-1.21,1.58-1.46,3.59-1.92l-7.38-2.81c-6.63-1.97-3.17-1.23-7.06-2.99-2.5-1.13-4.45-2.19-7.1-3.25Z"/>
      <path class="cls-3" d="m556.03,201.82c3.33,1.36,5.96.46,3.9,7.2-.6,1.97-1.64.74-1.22,5.04,1.71.02,1.87-.52,3.86-.23,1.62.23,2.25.46,4.01.24,1.83-3.12,1.23-1.55,4.65-1.96,3.65-.43,2.85,1.04,4.61,2.46.9.72,1.18.57,1.98,1.68,1.21,1.67,3.13,4.83,5.55,5.44,1.04-.92.97-1.03,2.29-1.86,4.19-2.62,1.74-2.01,3.83-4.68.75-.95.95-1.08,1.58-2.31-.48-.73-1.04-2.01-1.59-2.77-.73-1.02-1.13-.92-1.85-2.42-1.42-2.94,1.18-2.72,1.3-6.63.07-2.15-.19-2.15.62-4.06.51-1.2.4-2.2.83-3.44,1.02-2.98,2.32-2.54,4.69-4.14,2.66-1.8,2.54-2.45,2.94-5.96.2-1.75,1.08-1.33,2.11-2.39.69-.71,1.16-1.55,1.65-2.61,4.47-9.68,5.18-6.37,9.19-8.4-.54-1.25-4.86-5.34-6.12-6.34-5.09-4.01-7.03-3.1-10.95-7.92-1.01-1.25-1.9-1.7-3.13-2.95-4.55-4.63-16.52-11.23-22.54-14.29-6.3-3.21-14.16-1.54-21.31-.63-.46.97-.4,1.58-.86,2.47-.6,1.13-1.04.92-1.49,1.86-2.18,4.61.23,6.58.53,7.56,1.05,3.47-.97,3.15,2.3,7.14.97,1.18,1.08,4.21.45,5.94-.69,1.88-1.78.86-1.51,4.57.15,2.12-.34,3.79.6,5.17,1.53,2.23,6.07,1.76,5.06,8.04-.45,2.81-.54,2.8.25,5.52.66,2.28.29,3.64.59,5.77.3,2.06,1.58,1.73,1.6,4.86.02,2.48-.81,4.08,1.59,5.07Z"/>
      <path class="cls-2" d="m318.8,55.96c1.74,1.22,1.14,1.13,3.63,1.43,2.25.27,5.75,1.22,7.07,3.27,1.25,1.94.98.93,2.97,1.9,1.8.88,1.38,1.01,3.99,1.27,2.13.22,2.29.28,3.49,1.6,4.37,4.8,1.79,2.64,1.83,7.03,1.09.8,2.33,1.05,3.44,1.71,4.94,2.94-2.25,2.71,2.41,9.76,1.38,2.09,1.8,4.29,3.34,6.39,2.34,3.18,3.04.3,3.22,6.58,2.16.87,3.25.16,3.61,3.36.37,3.34-.34,2.96,1.8,5.18,1.18,1.22,2.63,2.29,4.95,1.62,3.78-1.09,5.02.65,6.75-3.95.99-2.63-1.83-2.55,2.94-7.4,1.58-1.61,1.24-2.56,2.54-4.46,1.9-2.78,2.44-.65,4.15-2.85,1.18-1.52,1.48-2.44,3.72-3.28.86-.32,2.27-.48,2.84-.78,3.24-1.72.27-5.35,3.43-6.95,1.16-.58,1.4-.57,2.46-1.2,4.19-2.48,3.47.11,4.85-5.51.49-1.99.92-3.71,1.19-5.76,1.22-9.54-3.74-6.09-5.71-7.21-1.4-1.16-.48-2.19-1.32-3.93-.63-1.3-1.56-1.96-2.23-2.88-2,.22-3.74,2.03-4.72-.52-.62-1.61-.55-3.8-1.29-5.69-.67-1.7-1.32-3.4-2.21-4.79-.67-1.04-2.68-10.38-2.75-11.18-.24-2.91.45-8.63-2.23-11.85-1.77-2.13-.92-.71-3.01-3.92-1.06,1.03-.98,3.43-1.83,4.84-.81,1.33-1.91,2.15-2.89,3.51-.97,1.33-1.58,2.65-2.48,4.21-.77,1.33-1.93,2.32-2.83,3.57-3.72,5.22-2.93,6.13-4.27,8.81-.75,1.51-1.94,2.65-2.42,4.26-1.99,6.63-.56,4.02-4.9,8.2-1.27,1.22-1.83,2.15-4.25,2.13-3.3-.02-2.95.13-5.53-1.19-2.37-1.21-2.89-.37-5.43-.36-1.96.01-4.03-.48-5.7.42-1.72.93-1.12,2.43-4.05,1.76-3.59-.83-5.44-3.34-8.21-4.69l-.32,7.52Z"/>
      <path class="cls-2" d="m405.55,592.55c.96-.91,1.49-2.14,2.28-3,1.02-1.1,1.73-1.68,2.57-2.6,2.1-2.28,3.64-2.22,6.11-4.23,5.33-4.34,5.73-4.29,7.65-12.7.64-2.82-.74-6.23.16-9.63,1.11-4.2.75-4.45-.33-8.29-.57-2.02-1.1-7.37-.23-9.01,1.58-2.97,2.02-3.6.36-7.27-2.49-.28-4.38.4-7.01.32-3.24-.09-2.88.84-4.93,2.06-6.15,3.65-5.78-1.61-9.65-1.9-1.15-.09-2.45.25-3.67.28-3.33.08-6.18-1.34-8.16,2.05-1.26,2.15-1.54,2.23-4.61,2.25-10.39.07-2.56,4.85-7.15,6.08l-8.88-.86c-.76-.34-1.07-1.09-1.94-1.43-1.67-.65-3.25.29-5.48-.92-3.25-1.76-8.27-.66-12.18-.78-3.56-.11-2.27-1.62-4.49-2.34-1.07-.35-4.3.19-5.6.34-.34,2.59-1.16,4.71-.41,7.52.49,1.85.16,4.78-.19,6.89,3.41-.07,10.05-1.24,12.97.11,1.42.66.55.97,2.33,1.29,3.16.56,6.95-.47,9.89.18,2.66.6,3.03,1.12,4.15,2.85,1.31,2.01,2.86.92,5.36,1.36,1.78.31,10.05,6.77,11.77,8.61,7.42,7.94,3.77,5.75,13.24,7.17,3.48.52,9.9,1.3,7.23,5.06-1.34,1.88-2.35.72-2.7,4.05-.35,3.33-.92,2.94-1.6,5.26,1.15.25,2.27.77,3.16,1.24Z"/>
      <path class="cls-1" d="m610.67,224.82c-.02-1.41.26-1.36,1.25-2.19,3.43-2.88,1.33-.86,2.27-4.13.62-2.17,2.42-1.99,1.15-4.13-1.91-3.2-6.15-1.55-6.55-.98-1.36,1.9.57.8-3.06,3.33-2.29,1.6-3.54,3.55-7.98,4.84-2.03.59-2.82-1.01-4.08-1.69-1.48,1.06-3.24,3.68-5.36-.31-.87.25-2.11,1.02-2.85,1.55-.7.5-2.39,4.05-6.97-2.2-3.67-5.01-2.16-2.27-3.92-4.3-1.84-2.12-1.38-1.69-6.17-1.46-2.11,2.67-1.89,2.25-5.93,1.67-2.09-.3-4.53.34-5.93,1.4-.36,3.32,1.72,3.9,1.86,6.7.18,3.33-2.35,4.31-3.1,5.16-1.39,1.57-1.98,2.9-4.82,3.73-1.36.4-2.79,2.67-3.96,4.15.83.78,1.13.5,2,1.04,1.01.62.5.72,1.29,1.45,1.7,1.57,1.58-.03,2.72,3.07.83,2.25,2.03,1.26,2.29,3.6.22,1.92-.61,2.95-.59,4.74.44.05,4.11-.88,4.67-1.12,1.54-.68,1.93-1.85,2.35-3.74,7.38-2.27,4.2-2.41,6.99-5.19,1.09-1.09,2.46-1.48,3.49-2.6,1.08-1.17,1.32-2.73,2.34-3.45,1.22-.86,3.72-.41,4.67.42,1.5,1.32.22,2.33,3.02,3.07,1.88.5,4.01-.17,5.07.4.99.53,1.68,2.08,2.88,3.09,2.37-.05,3.62-.71,5.04.88,1.22,1.36.86,2.89,1.03,4.86,2.01-.71,2.82-2.05,3.99-3.44,4.82-5.73,3.28-3.44,5.62-2.62,1.17.41,1.36.05,2.49.27,1.23.24,2.59,1.29,3.42,2.04,1.65,1.49,3.51,3.69,7.02,4,9.47.83,3.09-.93,8.57-1.79,3.27-.51,3.72-4.14,5.42-5.61,1.3-1.11,3.07-.11,4.61-.01,1.84.12,3.2-.31,4.87-.55,6.37-.9,6.7.16,8.01-2.94,1.56-3.7,1.93-4.35,1.97-8.96.04-3.72,1.97-6.02,1.4-9.29-4.06-1.72-2.81-1.55-4.37-2.31-1.55-.75-4.14-.82-5.96-.36-.9,4.07-.29,2.83-2.43,3.63-1.43.53-.45.03-1.28,1.13-.91,1.21-1.53,1.4-3.26,1.26-1.55-.13-2.86-.38-4.45-.37-2.15.02-2.07.55-3.68,1.11-4.96,1.74-2.59.86-4.92,4.83-.74,1.26-1.22,1.78-2.67,2.21-2.42.73-1.46.62-3.05,1.67-4.47-1.08-1.56-3.12-3.43-5.11l-2.99-.48Z"/>
      <path class="cls-1" d="m620.2,203.03c-5.75.1-5.47,2.15-7.07,1.33-2-1.02.5-1.09-3.04-.83-1.52.11-2.69-.07-2.53-1.88.12-1.43,1.2-1.89,1.93-2.75,1.27-1.49.02-1.69.82-3.44.69-1.5,2.27-.73,3.83-4.92-.9.19-2.51.41-3.25.65-1.11.35-1.34.95-2.15,1.48-1.96,1.29-3.39-.39-5.03,1.98-.86,1.24-.33,1-1.82,1.83-1.63.9-2.18,3.76-7.36,3.01-.98-1.76-1.19-2.31-3.92-2.4-.87,2.34-.44,2.27-.69,4.83-.4,4.2-3.65,2.8.14,7.28.62.74.54.76,1.04,1.7.64,1.22.3.41,1.03,1.39.72,2.55-5.89,4.86-1.51,8.38,2.21-.63,1.24-.92,2.74-1.82,2.8.36,2.16,2.55,4.51,1.63,1.21-.47,3.53-1.55,4.27-2.15.95-.77.85-.89,1.79-1.55,5.83-4.09,2.66-3.23,4.74-4.7.93-.66,4.86-.6,6.05-.12.83.34,2.35,2.84,1.98,4.14-.24.87-.92,1.48-1.27,2.13-.61,1.12-.25,1.33-.49,2.53-.25,1.25-1.2,1.61-2.89,3.29,1.77.26,2.8-.11,3.16,2.01.43,2.57-.95,2.18,1.59,3.21,3.73-2.44,3.94-.66,5.45-3.92,1.58-3.43,1.08-3.28,4.9-4.52,1.31-.42,2.03-1.14,3.64-1.24,4.67-.28,5.81,1.59,7.73-.8,1.15-1.44,1.02-.98,2.96-1.52.15-1.42-.08-2.81,1.33-3.34,4.34-1.64,8.27,2.01,9.96,2.37-.52-3.69-.37-5.61-1.93-8.81-1.23-2.5-.94-6.51-.75-9.58-2.43.21-8.78.32-10.38,1.06-1.35.63-3.2.91-4.81.66-2.22-.35-1.85-.85-3-2.42-3.83.21-1.79-.44-3.61-1.83-1.23.22-1.87,1.52-2.54,2.43-1.26,1.73-.31,1.96-.24,3.85.09,2.43-2.22,5.69-4.15,5.75-1.22-1.29-.87-2.55-1.15-4.38Z"/>
      <path class="cls-1" d="m595.09,198.6c2.04-.03,3.61-.41,4.79-1.69,2.18-2.36,1.45-.4,3.11-2.99,1.2-1.87,1.87-1.32,4.32-1.77,1.73-.32,1.47-1.58,4.02-2.09,1.34-.27,4.24-1.4,3.86.79-.19,1.07-1.74,3.25-2.4,3.74-3.07,2.31-.87,1.31-1.93,4.14-.61,1.64-2.49,1.51-2.16,3.69,1.62.28,1.75-.11,2.98-.13,1.55-.02,1.23.43,2.07,1.23,2.22-.62,4.02-2.1,7.09-1.36.54,1.35.44,3.41,1.09,4.25,4.38-3.79,1.25-5.96,2.42-8.47.15-.33,2.33-2.96,2.63-3.18,1.87-1.33,2.52.47,3.2,1.48,4.65.04,1.71,1.02,3.87,2.12,1.42.72,3.97.27,5.1-.25,2.8-1.31,6.99-.54,10.21-1.2.34-.59.2.17.25-1.01,0-.14-.06-.62-.08-.77-.45-2.71-1.26-2.87-2.11-4.05-3.11-4.36,1.19-8.48-4.21-12.23-1.22-.85-3.48-2.64-4.73-3.19-4.24-1.85-10.26.06-14.85-.41-1.1-.11-2.68-.24-3.74-.48-1.77-.4-1.33-.93-2.38-1.57-2.21-1.34-3.81-.15-5.48-2.32-1.39.22-1.48.63-2.61.88-2.69.6-2.36-.72-5.15,3.95-.77,1.29-1.39,2.85-2.15,4.24-.91,1.66-1.56,1.96-2.97,3.11-.36.61.81,4.32-3.5,7.17-2.56,1.7-4.39,1.45-4.66,5.61,1.86,1.01,3.01.09,4.09,2.75Z"/>
      <path class="cls-2" d="m545.52,434.75c-1.5,1.23-5.86.35-7.7.81-.37,2.11-.1,2.24.48,4.04.68,2.14-.17,2.33.03,3.93.21,1.6,1.13,1.06,1.86,2.71.8,1.81-.16,3.01.52,4.01,1.17,1.47,3.41.32,5.5.57,2.24.26,4.07-.13,6.42.11.58-1.37,2.04-5.17,2.79-5.98,1.46-1.58,3.2-.56,4.79-3.73,1.05-2.1,2.11-3.4,3.22-5.31,1.33-2.29,1.02-4.1,2.06-6.45,1.08-2.44,2.7-2.81,4.45-4.38,2.65-2.38,2.78-19.23,2.41-22.56l-6.75-4.52c-1.57-.8-1.7-1.65-3.43-2.08-.82-.2-4.06-.01-4.49.12-1.62,1.02-.81,2.54-2.12,3.39-1.97,1.27-3.68-.92-5.29,1.42-1,1.46-1.58,1.65-1.73,2.9.95.63,1.93.63,2.56,1.46.6.79.5,2.13.8,3.18.96,3.45-.55,3.45-3.78,3.45,1.31,2.31,1.07-.07,3.6,4.63,1.11,2.07,2.5,2.56.42,5.42-.56.77-1.21,1.34-1.8,2.16-.67.94-.71,1.74-1.32,2.64-2.08,3.12.95,3.61-3.02,4.88-.02.52.03,1.26-.01,1.72-.11,1.26.18.71-.47,1.48Z"/>
      <path class="cls-2" d="m550.63,452.24c-1.03-.35.55-.19-1.13-.35-2.56-.24-7.53.5-8.88-.29-2.17-1.27-.63-2.33-1.21-4.56-.64-2.48-2.43-1.53-3.43-.25-1.75,2.24-5.59,3.86-4.74,8.34.4,2.14,1.28,2.81-.11,5.07-1.15,1.88-2.28.65-4.32,2.08-12.85,9.01-8.31,2.4-13.01,4.63-3.12,1.48-9.3.42-11.51,1.28-1.62.62-2.21,1.53-4.11,2.27-2.78,1.09-8.53,1.39-10.41,2.31,4.45,1.29,1.64,2.76,5.14,3.77,1.09-.75.85-1.48,2.43-2.09,1.12.48,2.9,2.09,3,3.55.16,2.32-.94,2.68-.94,5.2,3.65-.73,4.04-3.07,7.37-3.17.81.45.58.48,1.11.8,1.14.7,1.89.5,2.74,2.15,1.04-.3,2.09-.81,3.1-1.42,1.42-.84,1.13-1.1,1.11-2.42-.04-2.5,3.37-3.31,4.73-2.7,1.01.92-.39,3.24.77,4.19,0,0,11.38,2.27,16.57-.52.18-2.64-1.7-2.51-.37-4.63.78-1.24,1.96-2.19,2.84-3.27,2.87-3.56,4-4.13,7.58-4.57,9.11-1.12,4.55-10,4.63-11.23.13-2.12,1.39-2.73,2.1-4l-1.05-.19Z"/>
      <path class="cls-1" d="m625.92,265.25c1.61-.62,5.22-4.38,6.59-5.59,2.15-1.9,3.63-3.94,5.41-6.76,2.89-4.56,8.27-7.86,10.4-13.88-2.29.28-5.31.55-7.45.99-3.59.74-5.19-.33-7.65-.09-2,1.57-2.35,5.32-5.68,5.96-4.03.77-1.48,1.04-3.8,1.96-1.62.64-3.36.04-5.13-.06-2.05-.12-2.59-.72-4.3-1.35-1.7-.63-2.26-1.46-3.28-2.52-.75-.78-2.24-1.97-3.7-2.2-3.21-.52-1.6-.08-3.95-1.33l-3.26,3.95c-1.63,2.11-1.98,1.61-3.81,3.27.75,2.61,3.91,2.32,6.57,3.25l5.75,3.68c1.53,1.04,2.02.66,3.55,1.32,9.55,4.11,5.55,4.76,7.46,6.57,1.23,1.18,2.22-.29,3.91.61.46.24,1.82,1.8,2.35,2.24Z"/>
      <path class="cls-1" d="m618.79,263.49c-.75-1.35-.51-1.52-.83-3.41-1.39-.75-2.97-1.59-4.55-2.42-.94-.49-1.45-.94-2.47-1.17-5.46-1.26-5.23-4.74-11.81-5.51-.13,1.89-.41,2.72.52,4.32.58,1,1.12,2.27,1.88,2.99.9.86,4.17,2.58,3.88,5.65l-1.79.99c-2.16,1.16,1.51,3.8-.53,6.11-1.23,1.4-4.36.76-6.53,1.13-1.34,3.6.49,3.73,2.79,5.35,3.45,2.44,1.48,3.57,2.32,6.49,1.99.75,2.19-.2,3.88.39,1.03.36,2.21,1.26,3.33,1.58.65-1.79,2.41-4.22,3.45-5.7,2.8-3.99,5.65-6.55,8.58-9.69,1.31-1.4,3.81-3.53,4.31-4.43-2.71-3.54-2.39-1.58-6.43-2.67Z"/>
      <path class="cls-2" d="m443.37,356.23c-1.69-.85-10.56-.7-12.63-.37.47,1.38.65,2.58-.05,3.93-1.12,2.19-1.83.43-1.8,2.95,1.04.43,5.99.84,7.69.96,2.98.22,4.76-.79,7.68-.59-.46-2.35-.02-4.52-.89-6.88Z"/>
    </g>
    <path class="cls-4" d="m577.14,85.18c-15.8,0-28.65,12.85-28.65,28.65,0,4.74,1.19,9.45,3.44,13.62l23.65,42.77c.31.57.91.92,1.57.92s1.25-.35,1.57-.92l23.66-42.78c2.25-4.16,3.43-8.86,3.43-13.6,0-15.8-12.85-28.65-28.65-28.65Zm0,42.98c-7.9,0-14.33-6.43-14.33-14.33s6.43-14.33,14.33-14.33,14.33,6.43,14.33,14.33-6.43,14.33-14.33,14.33Z"/>
    <path class="cls-5" d="m619.28,146.18c-6.9,0-12.52,5.62-12.52,12.52,0,2.07.52,4.13,1.5,5.95l10.33,18.69c.14.25.4.4.68.4s.55-.15.68-.4l10.34-18.7c.98-1.82,1.5-3.87,1.5-5.94,0-6.9-5.62-12.52-12.52-12.52Zm0,18.78c-3.45,0-6.26-2.81-6.26-6.26s2.81-6.26,6.26-6.26,6.26,2.81,6.26,6.26-2.81,6.26-6.26,6.26Z"/>
    <path class="cls-5" d="m642,169.57c-6.9,0-12.52,5.62-12.52,12.52,0,2.07.52,4.13,1.5,5.95l10.33,18.69c.14.25.4.4.68.4s.55-.15.68-.4l10.34-18.7c.98-1.82,1.5-3.87,1.5-5.94,0-6.9-5.62-12.52-12.52-12.52Zm0,18.78c-3.45,0-6.26-2.81-6.26-6.26s2.81-6.26,6.26-6.26,6.26,2.81,6.26,6.26-2.81,6.26-6.26,6.26Z"/>
    <path class="cls-5" d="m591,193.57c-6.9,0-12.52,5.62-12.52,12.52,0,2.07.52,4.13,1.5,5.95l10.33,18.69c.14.25.4.4.68.4s.55-.15.68-.4l10.34-18.7c.98-1.82,1.5-3.87,1.5-5.94,0-6.9-5.62-12.52-12.52-12.52Zm0,18.78c-3.45,0-6.26-2.81-6.26-6.26s2.81-6.26,6.26-6.26,6.26,2.81,6.26,6.26-2.81,6.26-6.26,6.26Z"/>
    <path class="cls-5" d="m520,191.57c-6.9,0-12.52,5.62-12.52,12.52,0,2.07.52,4.13,1.5,5.95l10.33,18.69c.14.25.4.4.68.4s.55-.15.68-.4l10.34-18.7c.98-1.82,1.5-3.87,1.5-5.94,0-6.9-5.62-12.52-12.52-12.52Zm0,18.78c-3.45,0-6.26-2.81-6.26-6.26s2.81-6.26,6.26-6.26,6.26,2.81,6.26,6.26-2.81,6.26-6.26,6.26Z"/>
    <path class="cls-5" d="m538,257.57c-6.9,0-12.52,5.62-12.52,12.52,0,2.07.52,4.13,1.5,5.95l10.33,18.69c.14.25.4.4.68.4s.55-.15.68-.4l10.34-18.7c.98-1.82,1.5-3.87,1.5-5.94,0-6.9-5.62-12.52-12.52-12.52Zm0,18.78c-3.45,0-6.26-2.81-6.26-6.26s2.81-6.26,6.26-6.26,6.26,2.81,6.26,6.26-2.81,6.26-6.26,6.26Z"/>
    <path class="cls-6" d="m304,276.57c-6.9,0-12.52,5.62-12.52,12.52,0,2.07.52,4.13,1.5,5.95l10.33,18.69c.14.25.4.4.68.4s.55-.15.68-.4l10.34-18.7c.98-1.82,1.5-3.87,1.5-5.94,0-6.9-5.62-12.52-12.52-12.52Zm0,18.78c-3.45,0-6.26-2.81-6.26-6.26s2.81-6.26,6.26-6.26,6.26,2.81,6.26,6.26-2.81,6.26-6.26,6.26Z"/>
    <path class="cls-6" d="m319,404.57c-6.9,0-12.52,5.62-12.52,12.52,0,2.07.52,4.13,1.5,5.95l10.33,18.69c.14.25.4.4.68.4s.55-.15.68-.4l10.34-18.7c.98-1.82,1.5-3.87,1.5-5.94,0-6.9-5.62-12.52-12.52-12.52Zm0,18.78c-3.45,0-6.26-2.81-6.26-6.26s2.81-6.26,6.26-6.26,6.26,2.81,6.26,6.26-2.81,6.26-6.26,6.26Z"/>
    <path class="cls-6" d="m372,481.57c-6.9,0-12.52,5.62-12.52,12.52,0,2.07.52,4.13,1.5,5.95l10.33,18.69c.14.25.4.4.68.4s.55-.15.68-.4l10.34-18.7c.98-1.82,1.5-3.87,1.5-5.94,0-6.9-5.62-12.52-12.52-12.52Zm0,18.78c-3.45,0-6.26-2.81-6.26-6.26s2.81-6.26,6.26-6.26,6.26,2.81,6.26,6.26-2.81,6.26-6.26,6.26Z"/>
    <path class="cls-6" d="m522,432.57c-6.9,0-12.52,5.62-12.52,12.52,0,2.07.52,4.13,1.5,5.95l10.33,18.69c.14.25.4.4.68.4s.55-.15.68-.4l10.34-18.7c.98-1.82,1.5-3.87,1.5-5.94,0-6.9-5.62-12.52-12.52-12.52Zm0,18.78c-3.45,0-6.26-2.81-6.26-6.26s2.81-6.26,6.26-6.26,6.26,2.81,6.26,6.26-2.81,6.26-6.26,6.26Z"/>
    <path class="cls-6" d="m494,375.57c-6.9,0-12.52,5.62-12.52,12.52,0,2.07.52,4.13,1.5,5.95l10.33,18.69c.14.25.4.4.68.4s.55-.15.68-.4l10.34-18.7c.98-1.82,1.5-3.87,1.5-5.94,0-6.9-5.62-12.52-12.52-12.52Zm0,18.78c-3.45,0-6.26-2.81-6.26-6.26s2.81-6.26,6.26-6.26,6.26,2.81,6.26,6.26-2.81,6.26-6.26,6.26Z"/>
    <path class="cls-6" d="m428,249.57c-6.9,0-12.52,5.62-12.52,12.52,0,2.07.52,4.13,1.5,5.95l10.33,18.69c.14.25.4.4.68.4s.55-.15.68-.4l10.34-18.7c.98-1.82,1.5-3.87,1.5-5.94,0-6.9-5.62-12.52-12.52-12.52Zm0,18.78c-3.45,0-6.26-2.81-6.26-6.26s2.81-6.26,6.26-6.26,6.26,2.81,6.26,6.26-2.81,6.26-6.26,6.26Z"/>
    <path class="cls-6" d="m555,394.57c-6.9,0-12.52,5.62-12.52,12.52,0,2.07.52,4.13,1.5,5.95l10.33,18.69c.14.25.4.4.68.4s.55-.15.68-.4l10.34-18.7c.98-1.82,1.5-3.87,1.5-5.94,0-6.9-5.62-12.52-12.52-12.52Zm0,18.78c-3.45,0-6.26-2.81-6.26-6.26s2.81-6.26,6.26-6.26,6.26,2.81,6.26,6.26-2.81,6.26-6.26,6.26Z"/>
    <path class="cls-6" d="m395,522.57c-6.9,0-12.52,5.62-12.52,12.52,0,2.07.52,4.13,1.5,5.95l10.33,18.69c.14.25.4.4.68.4s.55-.15.68-.4l10.34-18.7c.98-1.82,1.5-3.87,1.5-5.94,0-6.9-5.62-12.52-12.52-12.52Zm0,18.78c-3.45,0-6.26-2.81-6.26-6.26s2.81-6.26,6.26-6.26,6.26,2.81,6.26,6.26-2.81,6.26-6.26,6.26Z"/>
    <path class="cls-6" d="m358,557.57c-6.9,0-12.52,5.62-12.52,12.52,0,2.07.52,4.13,1.5,5.95l10.33,18.69c.14.25.4.4.68.4s.55-.15.68-.4l10.34-18.7c.98-1.82,1.5-3.87,1.5-5.94,0-6.9-5.62-12.52-12.52-12.52Zm0,18.78c-3.45,0-6.26-2.81-6.26-6.26s2.81-6.26,6.26-6.26,6.26,2.81,6.26,6.26-2.81,6.26-6.26,6.26Z"/>
    <path class="cls-6" d="m366,42.57c-6.9,0-12.52,5.62-12.52,12.52,0,2.07.52,4.13,1.5,5.95l10.33,18.69c.14.25.4.4.68.4s.55-.15.68-.4l10.34-18.7c.98-1.82,1.5-3.87,1.5-5.94,0-6.9-5.62-12.52-12.52-12.52Zm0,18.78c-3.45,0-6.26-2.81-6.26-6.26s2.81-6.26,6.26-6.26,6.26,2.81,6.26,6.26-2.81,6.26-6.26,6.26Z"/>
    <path class="cls-6" d="m345,152.57c-6.9,0-12.52,5.62-12.52,12.52,0,2.07.52,4.13,1.5,5.95l10.33,18.69c.14.25.4.4.68.4s.55-.15.68-.4l10.34-18.7c.98-1.82,1.5-3.87,1.5-5.94,0-6.9-5.62-12.52-12.52-12.52Zm0,18.78c-3.45,0-6.26-2.81-6.26-6.26s2.81-6.26,6.26-6.26,6.26,2.81,6.26,6.26-2.81,6.26-6.26,6.26Z"/>
    <path class="cls-6" d="m154,123.57c-6.9,0-12.52,5.62-12.52,12.52,0,2.07.52,4.13,1.5,5.95l10.33,18.69c.14.25.4.4.68.4s.55-.15.68-.4l10.34-18.7c.98-1.82,1.5-3.87,1.5-5.94,0-6.9-5.62-12.52-12.52-12.52Zm0,18.78c-3.45,0-6.26-2.81-6.26-6.26s2.81-6.26,6.26-6.26,6.26,2.81,6.26,6.26-2.81,6.26-6.26,6.26Z"/>
    <path class="cls-6" d="m178,249.57c-6.9,0-12.52,5.62-12.52,12.52,0,2.07.52,4.13,1.5,5.95l10.33,18.69c.14.25.4.4.68.4s.55-.15.68-.4l10.34-18.7c.98-1.82,1.5-3.87,1.5-5.94,0-6.9-5.62-12.52-12.52-12.52Zm0,18.78c-3.45,0-6.26-2.81-6.26-6.26s2.81-6.26,6.26-6.26,6.26,2.81,6.26,6.26-2.81,6.26-6.26,6.26Z"/>
    <path class="cls-6" d="m261,33.57c-6.9,0-12.52,5.62-12.52,12.52,0,2.07.52,4.13,1.5,5.95l10.33,18.69c.14.25.4.4.68.4s.55-.15.68-.4l10.34-18.7c.98-1.82,1.5-3.87,1.5-5.94,0-6.9-5.62-12.52-12.52-12.52Zm0,18.78c-3.45,0-6.26-2.81-6.26-6.26s2.81-6.26,6.26-6.26,6.26,2.81,6.26,6.26-2.81,6.26-6.26,6.26Z"/>
    <path class="cls-6" d="m76,215.57c-6.9,0-12.52,5.62-12.52,12.52,0,2.07.52,4.13,1.5,5.95l10.33,18.69c.14.25.4.4.68.4s.55-.15.68-.4l10.34-18.7c.98-1.82,1.5-3.87,1.5-5.94,0-6.9-5.62-12.52-12.52-12.52Zm0,18.78c-3.45,0-6.26-2.81-6.26-6.26s2.81-6.26,6.26-6.26,6.26,2.81,6.26,6.26-2.81,6.26-6.26,6.26Z"/>
    <path class="cls-5" d="m399,326.57c-6.9,0-12.52,5.62-12.52,12.52,0,2.07.52,4.13,1.5,5.95l10.33,18.69c.14.25.4.4.68.4s.55-.15.68-.4l10.34-18.7c.98-1.82,1.5-3.87,1.5-5.94,0-6.9-5.62-12.52-12.52-12.52Zm0,18.78c-3.45,0-6.26-2.81-6.26-6.26s2.81-6.26,6.26-6.26,6.26,2.81,6.26,6.26-2.81,6.26-6.26,6.26Z"/>
    <path class="cls-5" d="m412,426.57c-6.9,0-12.52,5.62-12.52,12.52,0,2.07.52,4.13,1.5,5.95l10.33,18.69c.14.25.4.4.68.4s.55-.15.68-.4l10.34-18.7c.98-1.82,1.5-3.87,1.5-5.94,0-6.9-5.62-12.52-12.52-12.52Zm0,18.78c-3.45,0-6.26-2.81-6.26-6.26s2.81-6.26,6.26-6.26,6.26,2.81,6.26,6.26-2.81,6.26-6.26,6.26Z"/>
    <path class="cls-5" d="m476,146.57c-6.9,0-12.52,5.62-12.52,12.52,0,2.07.52,4.13,1.5,5.95l10.33,18.69c.14.25.4.4.68.4s.55-.15.68-.4l10.34-18.7c.98-1.82,1.5-3.87,1.5-5.94,0-6.9-5.62-12.52-12.52-12.52Zm0,18.78c-3.45,0-6.26-2.81-6.26-6.26s2.81-6.26,6.26-6.26,6.26,2.81,6.26,6.26-2.81,6.26-6.26,6.26Z"/>
    <path class="cls-5" d="m629,212.57c-6.9,0-12.52,5.62-12.52,12.52,0,2.07.52,4.13,1.5,5.95l10.33,18.69c.14.25.4.4.68.4s.55-.15.68-.4l10.34-18.7c.98-1.82,1.5-3.87,1.5-5.94,0-6.9-5.62-12.52-12.52-12.52Zm0,18.78c-3.45,0-6.26-2.81-6.26-6.26s2.81-6.26,6.26-6.26,6.26,2.81,6.26,6.26-2.81,6.26-6.26,6.26Z"/>
    <path class="cls-5" d="m609,237.57c-6.9,0-12.52,5.62-12.52,12.52,0,2.07.52,4.13,1.5,5.95l10.33,18.69c.14.25.4.4.68.4s.55-.15.68-.4l10.34-18.7c.98-1.82,1.5-3.87,1.5-5.94,0-6.9-5.62-12.52-12.52-12.52Zm0,18.78c-3.45,0-6.26-2.81-6.26-6.26s2.81-6.26,6.26-6.26,6.26,2.81,6.26,6.26-2.81,6.26-6.26,6.26Z"/>
  </g>
</svg>